<?xml version="1.0" encoding="utf-8"?>
<!-- Generator: Adobe Illustrator 23.0.1, SVG Export Plug-In . SVG Version: 6.00 Build 0)  -->
<svg version="1.1" id="Layer_1" xmlns="http://www.w3.org/2000/svg" xmlns:xlink="http://www.w3.org/1999/xlink" x="0px" y="0px"
	 viewBox="0 0 158.7 146.6" style="enable-background:new 0 0 158.7 146.6;" xml:space="preserve">
<style type="text/css">
	.st0{fill:none;stroke:#344154;stroke-width:3.5;stroke-linecap:round;stroke-miterlimit:10;}
</style>
<g id="XMLID_1632_">
	<g id="XMLID_1595_">
		<g id="XMLID_1912_">
			<line id="XMLID_1916_" class="st0" x1="40.9" y1="94" x2="40.9" y2="98.3"/>
			<path id="XMLID_1915_" class="st0" d="M34.9,139.4h4.2c1,0,1.8,0.4,2.5,1c0.6,0.6,1,1.5,1,2.5c0,0.5-0.1,1-0.3,1.5H18.4
				c-1.4-3.1-3.7-9.5-4-17c-0.6-13,7.4-24.9,19.5-29.6l0.1-0.1c4.9-1.9,6.8-3.6,6.8-3.6c0.8-6.2,3.7-12.5,3.7-12.5
				c0-3.2,3-13.2,3-13.2c2.3-9.9,4-11.8,4-11.8c5.8,1.4,7.2,8.8,7.2,8.8h0c3.3,0,6.4,1.7,8.2,4.5l0.1,0.2l2.2,0.7
				c1.6,0,1.5,1.5,1.5,1.5v3c0,1.8-1.3,3.3-3,3.6L65,79.4c-2.2,0.4-3.8,2.3-3.8,4.6v1.8c0,0,7.8,12.4-3.8,23.3c0,0-1.4,2.1-1.7,11.6
				v17.4c0,0,9-1,9.3,2.7c0.2,1.8,0.2,3.7-1.7,4c-1.2,0.2-5.3,0.1-8.4,0.1c-0.8,0-1.5-0.2-2.2-0.4h0c-0.2-0.1-0.5-0.2-0.7-0.3
				c-0.9-0.5-1.7-1.1-2.4-2c-0.7-1-1.2-2.1-1.3-3.3l-1.2-10.4l-1.8-10.5c-0.1-0.6-0.6-1.1-1.3-1.2l0,0c-0.9-0.1-1.7,0.7-1.5,1.7
				c0.5,2.6,0.8,7.5-2,12.5c-3.8,6.7-10.5,8.4-11.6,8.6c2.7,0,5.4,0,8.2,0"/>
			<line id="XMLID_1914_" class="st0" x1="65" y1="79.4" x2="56.8" y2="79.4"/>
			<path id="XMLID_1913_" class="st0" d="M19.3,144.4H15c-7.3,0-13.3-5.9-13.3-13.3v-28.6c0-1.7,1.3-3,3-3s3,1.3,3,3v27.7
				c0,0.8,0,2.2,0.6,3.8c0.8,1.9,2.2,3.1,2.8,3.5"/>
		</g>
		<path id="XMLID_1917_" class="st0" d="M76.5,71.9l9.1-10.8c4.8-5.7,8.9-11.9,11.9-18.7c6.8-15,15.5-18.9,15.5-18.9
			c3.6-8.4,16.9-19.3,16.9-19.3l-2.5,15.2c0,0,8.7,3.7,9.7,10.4l15.4,7.4c0,0,5.3,0.9,4.2,3.7c0,0-2.2,3-3.3,3.5
			c0,0-2.3,4.9-4.2,5.7c-1.9,0.9-16.3-0.6-16.3-0.6s-6,5.1-3.1,14.8c0.4,1.3,0.8,2.7,1.2,4.1c3.4,12.6-1.2,26.1-11.4,34.1l-2.4,1.8
			c-0.9,0.7-1.6,1.5-2.4,2.3c-2.5,2.9-4.1,6.4-5,10.2l-1.1,4.6l1.9,16.7c1.8,0.4,3.2,1.1,4.2,2c1.6,1.3,0.7,4-1.4,4h-6
			c-2.2,0-4.1-1.5-4.6-3.7l-3.9-18l1.9-13.1c-1.2,3.2-5.4,5.3-8.9,6.5l-8,2.7"/>
	</g>
	<path id="XMLID_1911_" class="st0" d="M75.5,101.8c10.8,24.7-9.5,34.1-9.5,34.1h11.2c4.1-0.5,5.6,1,6.1,2.8
		c0.7,2.8-1.6,5.4-4.5,5.4h-8"/>
</g>
</svg>
