<?xml version="1.0" encoding="utf-8"?>
<!-- Generator: Adobe Illustrator 23.0.1, SVG Export Plug-In . SVG Version: 6.00 Build 0)  -->
<svg version="1.1" id="Layer_1" xmlns="http://www.w3.org/2000/svg" xmlns:xlink="http://www.w3.org/1999/xlink" x="0px" y="0px"
	 viewBox="0 0 158.7 146.6" style="enable-background:new 0 0 158.7 146.6;" xml:space="preserve">
<style type="text/css">
	.st0{fill:none;stroke:#344154;stroke-width:3;stroke-miterlimit:10;}
	.st1{fill:none;stroke:#344154;stroke-width:3;stroke-linecap:round;stroke-miterlimit:10;}
</style>
<g>
	<g>
		<g>
			<path class="st0" d="M68.4,0.6l0.2,35.5c0,2.4-1.6,4.4-3.9,5.1c-6.5,1.9-11.1,8.3-10.3,15.5c0.8,6.6,6.2,12,12.9,12.6
				c4.9,0.5,9.4-1.5,12.3-4.9c3,3.3,7.4,5.3,12.3,4.8c6.7-0.7,12.1-6.1,12.8-12.7c0.8-7.3-3.9-13.6-10.4-15.4
				c-2.3-0.6-3.9-2.6-3.9-5L90.1,0.6"/>
			<line class="st1" x1="32.1" y1="94.8" x2="42.1" y2="84.7"/>
			<line class="st1" x1="37.2" y1="72.6" x2="23.3" y2="72.6"/>
			<line class="st1" x1="41.8" y1="59.6" x2="32.8" y2="50.7"/>
			<line class="st1" x1="125.9" y1="50.7" x2="115.9" y2="60.8"/>
			<line class="st1" x1="120.8" y1="73" x2="134.7" y2="72.9"/>
			<line class="st1" x1="116.2" y1="86" x2="125.2" y2="94.8"/>
		</g>
	</g>
	<path class="st0" d="M91.1,145.6l-0.2-35.5c0-2.4,1.6-4.4,3.9-5.1c6.5-1.9,11.1-8.3,10.3-15.5c-0.8-6.6-6.2-12-12.9-12.6
		c-4.9-0.5-9.4,1.5-12.3,4.9c-3-3.3-7.4-5.3-12.3-4.8c-6.7,0.7-12.1,6.1-12.8,12.7c-0.8,7.3,3.9,13.6,10.4,15.4
		c2.3,0.6,3.9,2.6,3.9,5l0.1,35.4"/>
</g>
</svg>
