<?xml version="1.0" encoding="utf-8"?>
<!-- Generator: Adobe Illustrator 23.0.1, SVG Export Plug-In . SVG Version: 6.00 Build 0)  -->
<svg version="1.1" id="Layer_1" xmlns="http://www.w3.org/2000/svg" xmlns:xlink="http://www.w3.org/1999/xlink" x="0px" y="0px"
	 viewBox="0 0 158.7 146.6" style="enable-background:new 0 0 158.7 146.6;" xml:space="preserve">
<style type="text/css">
	.st0{fill:none;stroke:#344154;stroke-width:3;stroke-linecap:round;stroke-linejoin:round;stroke-miterlimit:10;}
	.st1{fill:none;stroke:#344154;stroke-width:3;stroke-linecap:round;stroke-miterlimit:10;}
</style>
<g>
	<path class="st0" d="M115.1,129.6c-10,5.7-24.3,10.4-36.7,10.4c-37.9,0-68.7-30.8-68.7-68.7S40.5,2.6,78.5,2.6s68.7,30.8,68.7,68.7
		c0,14.9-6.1,31.4-14.2,42.7"/>
	<path class="st0" d="M105.7,112c-1.4,6.4-11.2,16-27.2,16.1c-31.1,0.1-56.4-25.2-56.4-56.4s25.2-56.4,56.4-56.4
		s56.2,25.2,56.4,56.4c0.1,17.7-12.9,27.1-21.7,32.5"/>
	<polyline class="st0" points="140.5,144.6 91.6,95.7 77.8,69.2 146.8,138.2 	"/>
	<path class="st1" d="M94.7,37.3c0,2.7-2.2,4.9-4.9,4.9c-2.7,0-4.9-2.2-4.9-4.9c0-2.7,2.2-4.9,4.9-4.9
		C92.5,32.4,94.7,34.6,94.7,37.3z"/>
	<circle class="st1" cx="96.2" cy="51.9" r="0.4"/>
	<circle class="st1" cx="48.5" cy="50.8" r="0.4"/>
</g>
</svg>
