<?xml version="1.0" encoding="utf-8"?>
<!-- Generator: Adobe Illustrator 23.0.1, SVG Export Plug-In . SVG Version: 6.00 Build 0)  -->
<svg version="1.1" id="Layer_1" xmlns="http://www.w3.org/2000/svg" xmlns:xlink="http://www.w3.org/1999/xlink" x="0px" y="0px"
	 viewBox="0 0 104.9 129" style="enable-background:new 0 0 104.9 129;" xml:space="preserve">
<style type="text/css">
	.st0{fill:none;stroke:#B5D334;stroke-width:3;stroke-linecap:round;stroke-miterlimit:10;}
	.st1{fill:none;stroke:#B5D334;stroke-width:3;stroke-linecap:round;stroke-linejoin:round;stroke-miterlimit:10;}
</style>
<g>
	<g>
		<path class="st0" d="M77.5,127.5v-25.2c0,0-0.1-9.3,6-17.2c2.4-3.1,4.4-6.5,5.6-10.3c3.6-11.2,5.8-33.1-18.3-45.9
			c0,0-27.1-14-47.8,5c-3.8,3.5-6.7,8-8.1,13c-1,3.8-1.7,8.8-1,14.8c0.1,0.7,0.2,1.4,0.3,2.1c0.3,1.6,0.7,6.2-2.1,10.5l-5.5,8
			c0,0-1.6,3.5,2.5,4.3c0,0,1.3,0.1,2.2,0.5c0.6,0.3,0.8,1.1,0.4,1.6c-0.6,0.7-1.2,1.9,0.6,2.8c0.5,0.3,0.7,0.9,0.4,1.4
			c-0.6,1-0.9,2.4,1.5,3.1c0.5,0.2,0.8,0.6,0.7,1.2c-0.6,2.9-1.6,11.4,6.3,11.3l6.5-0.6c4.5-0.4,8.7,2.6,9.5,7.1
			c0.5,2.9,0.9,7,0.9,12.6"/>
		<g>
			<path class="st1" d="M75,58.4c1.6-1.4,2.3-3.6,1.6-5.8c-0.7-2.1-2.6-3.5-4.7-3.7c0.9-1.9,0.6-4.3-0.9-5.9
				c-1.5-1.7-3.8-2.2-5.8-1.5c0-2.1-1.2-4.1-3.2-5.1c-2.1-0.9-4.4-0.5-5.9,1c-0.8-1.9-2.8-3.3-5-3.3c-2.2,0-4.2,1.4-5,3.3
				c-1.5-1.4-3.9-1.9-5.9-1c-2.1,0.9-3.3,2.9-3.2,5.1c-2-0.7-4.3-0.2-5.8,1.5c-1.5,1.7-1.8,4-0.9,5.9c-2.1,0.2-4,1.6-4.7,3.7
				c-0.7,2.1,0,4.4,1.6,5.8c-1.8,1-3,3.1-2.8,5.3c0.2,2.2,1.8,4,3.8,4.6c-1.3,1.7-1.5,4-0.4,6c1.1,1.9,3.3,2.9,5.4,2.7
				c-0.5,2.1,0.3,4.3,2.1,5.6c1.8,1.3,4.2,1.4,6,0.3c0.4,2.1,2,3.8,4.2,4.3c2.2,0.5,4.4-0.5,5.6-2.2c1.2,1.7,3.4,2.7,5.6,2.2
				c2.2-0.5,3.8-2.2,4.2-4.3c1.8,1.1,4.2,1.1,6-0.3c1.8-1.3,2.6-3.6,2.1-5.6c2.1,0.3,4.2-0.7,5.4-2.7c1.1-1.9,0.9-4.3-0.4-6
				c2-0.6,3.6-2.4,3.8-4.6C78,61.5,76.8,59.4,75,58.4z"/>
			<path class="st1" d="M35.9,67.2c2.8,0,5.1-2.3,5.1-5.1c0-0.8-0.2-1.5-0.5-2.2c1,0.2,2.1,0.2,3.2-0.3c1.7-0.7,2.9-2.1,3.3-3.9
				c0.2-1.1,0.1-2.1-0.2-3c0.1,0,0.2,0,0.3,0c0.2,0,0.5,0,0.7,0c5-0.5,6.3-7,2.2-9.7c-1.9-1.3-3.7-3.1-3.9-5.6"/>
			<path class="st1" d="M47.1,52.8c0,0-4.7-1.7-6.5-6.7"/>
			<path class="st1" d="M65.2,41.4c0,0-3.2,10.6-13,7.4"/>
			<path class="st1" d="M75,58.4c0,0-6-0.4-7.6,6.2c0,0-6.3-3.4-12,0.1c-1.2,0.7-2.3,1.8-3.1,3c-1.5,2.2-3.6,6.3-1.9,10.9"/>
			<path class="st1" d="M72,48.6c0,0-12.5,2.3-12.2,14.6"/>
			<path class="st1" d="M33.2,77c0,0,6.7-8.3,16.9-4.7"/>
			<path class="st1" d="M60.8,82.9c0,0-3-2.1-3.1-6.1c0-3.6,3.9-6,7-4.1c0,0,0.1,0,0.1,0.1"/>
			<path class="st1" d="M45.8,58.1c0,0,6.9,0.7,7.6,8.2"/>
			<path class="st1" d="M40.5,59.9c0,0-3.1-1.4-5.1-4"/>
		</g>
	</g>
	<line class="st0" x1="52.4" y1="13" x2="52.4" y2="1.5"/>
	<line class="st0" x1="36.6" y1="15.8" x2="32.4" y2="4.2"/>
	<line class="st0" x1="21.9" y1="22.9" x2="14.1" y2="13.7"/>
	<line class="st0" x1="12.5" y1="32.7" x2="1.5" y2="26.4"/>
	<line class="st0" x1="94" y1="35.1" x2="103.4" y2="29.7"/>
	<line class="st0" x1="83.8" y1="23.9" x2="91.3" y2="15"/>
	<line class="st0" x1="68.1" y1="16.7" x2="72.3" y2="5.1"/>
</g>
</svg>
