<?xml version="1.0" encoding="utf-8"?>
<!-- Generator: Adobe Illustrator 23.0.1, SVG Export Plug-In . SVG Version: 6.00 Build 0)  -->
<svg version="1.1" id="Layer_1" xmlns="http://www.w3.org/2000/svg" xmlns:xlink="http://www.w3.org/1999/xlink" x="0px" y="0px"
	 viewBox="0 0 131.2 74.8" style="enable-background:new 0 0 131.2 74.8;" xml:space="preserve">
<style type="text/css">
	.st0{fill:none;stroke:#B5D334;stroke-width:3;stroke-miterlimit:10;}
	.st1{fill:none;stroke:#B5D334;stroke-width:3;stroke-linecap:round;stroke-miterlimit:10;}
</style>
<g>
	<path class="st0" d="M97,40.8c-15,10-26.1-6.5-26.1-6.5c-5.3-7.2-9.1,0.2-9.1,0.2c-2.8,6.8-6.8,6.1-9.2,5c-1.2-0.6-1.8-2-1.4-3.3
		l1.8-6.1c0.8-2.7,2.7-4.9,5.3-6l6.8-3c2.4-1.1,4.6-0.8,7.6-0.2l17.6,4.2L97,40.8z"/>
	<path class="st0" d="M100.7,49.4l-11.6,3.7L81.9,43c0,0,8.5,3.5,15.1-2.3L100.7,49.4z"/>
	<polyline class="st0" points="2.4,48.8 12.7,52.9 29.3,13 0.6,1.4 	"/>
	<polyline class="st0" points="27.8,16.7 41,22.2 29.3,49.4 16.4,44.4 	"/>
	<polyline class="st0" points="129.1,52.3 118.8,56.4 101.9,15.9 130.7,4.2 	"/>
	<polyline class="st0" points="103.4,19.5 90.3,25.1 101.9,52.3 114.8,47.3 	"/>
	<path class="st1" d="M81,42.9l10,12.5c0.8,1,1,2.2,0.6,3.4l0,0c-1,2.9-4.7,3.7-6.8,1.4L71.1,45.8"/>
	<path class="st1" d="M65,52.6l11.5,12.1c3.1,3.3,8.6,2.1,10-2.2c0-0.1,0-0.1,0.1-0.2"/>
	<path class="st1" d="M59.4,58.3L69,68.9c1.1,1.2,2.5,2,4.1,2.1c1.8,0.1,4.1-0.6,6-3.7"/>
	<path class="st0" d="M60,23.3c-8.6-2-19.1-1.1-19.1-1.1"/>
	<path class="st0" d="M31.3,44.7c0,0,13.2,9.1,27.6,23.2l4.5,4.3c2.2,2.2,6.1,1,6.6-2.1c0,0,0-0.1,0-0.1"/>
	<path class="st0" d="M38.9,50.4l-1.2,1.3c-1.1,1.3-1,3.3,0.3,4.4l0,0c1.4,1.1,3.5,1,4.6-0.4l1.1-1.3"/>
	<path class="st0" d="M50,59.6l-2.6,2.8c-1.4,1.5-3.7,1.6-5.2,0.3l0,0c-1.6-1.4-1.7-3.7-0.4-5.3l2.4-2.8"/>
	<path class="st0" d="M50,59.6l-1.7,1.8c-1.4,1.5-1.3,3.9,0.2,5.3l0,0c1.5,1.4,3.9,1.3,5.3-0.2l1.7-1.9"/>
	<path class="st0" d="M60.6,69.5l-0.9,0.9c-1.4,1.4-3.6,1.4-5,0.1l0,0c-1.4-1.3-1.5-3.6-0.1-5l0.7-0.7"/>
</g>
</svg>
