<?xml version="1.0" encoding="utf-8"?>
<!-- Generator: Adobe Illustrator 23.0.1, SVG Export Plug-In . SVG Version: 6.00 Build 0)  -->
<svg version="1.1" id="Layer_1" xmlns="http://www.w3.org/2000/svg" xmlns:xlink="http://www.w3.org/1999/xlink" x="0px" y="0px"
	 viewBox="0 0 158.7 146.6" style="enable-background:new 0 0 158.7 146.6;" xml:space="preserve">
<style type="text/css">
	.st0{fill:none;stroke:#344154;stroke-width:3;stroke-linecap:round;stroke-miterlimit:10;}
	.st1{fill:none;stroke:#344154;stroke-width:3;stroke-linecap:round;stroke-linejoin:round;stroke-miterlimit:10;}
</style>
<g>
	<g>
		<g>
			<path class="st0" d="M140.4,144.6l-3.3-27.6c-1.1-5.4-4-10.3-8.3-13.8c-2.7-2.2-5.5-3.7-8.1-4.2l-20.9-6.1
				c-0.5-0.1-0.9-0.3-1.3-0.6c-1.1-0.7-1.8-1.9-2-3.2l-1-8.3"/>
			<path class="st0" d="M49.9,42.4c-3.2,0.9-5.6,4.8-5.6,9.5c0,5.2,2.8,9.4,6.6,9.7c2.1,7.9,6.4,14.7,12.2,19.2l-1,8.3
				c-0.2,1.3-0.9,2.5-2,3.2c-0.4,0.3-0.8,0.5-1.3,0.6l-20.8,6c-2.7,0.6-5.4,2-8.2,4.3c-4.3,3.5-7.2,8.4-8.3,13.8l-3.3,27.6"/>
		</g>
		<g>
			<path class="st0" d="M108.9,42.4c3.2,0.9,5.6,4.8,5.6,9.5c0,5.2-2.8,9.4-6.6,9.7c-2.1,7.9-6.4,14.7-12.2,19.2l1,8.3
				c0.2,1.3,0.9,2.5,2,3.2c0.4,0.3,0.8,0.5,1.3,0.6l20.8,6c2.7,0.6,5.4,2,8.2,4.3c4.3,3.5,7.2,8.4,8.3,13.8l3.3,27.6"/>
		</g>
		<path class="st1" d="M100.2,93.6l-8.1,7.2c-7.2,6.5-18.2,6.5-25.4,0l-8.1-7.2"/>
		<path class="st0" d="M49.9,42.4c0,0-0.6-9.4,1.8-17.3c0,0,5.7-22.5,27.7-22.5S107.1,25,107.1,25c2.5,7.9,1.8,17.3,1.8,17.3"/>
		<path class="st0" d="M50.9,29.9c6.1,2.2,15.5,2.4,29.2-5.2c8.4-4.6,17.3-5.5,25-4.3"/>
	</g>
	<g>
		<g>
			<path class="st0" d="M127.8,49.8c2.9,1.5,4.4,5.5,3.5,10.1c-1,5-4.4,8.4-8,8c-1.9,3.9-4.4,7.4-7.3,10.3c-2.9,2.9-1.9,5.4,2,6.6
				l4.4,1.5c13.7,4.6,27.2,11.8,27.8,32.6c0,0.5,0.1,1.1,0.2,1.7"/>
		</g>
		<path class="st0" d="M127.8,49.8c0,0,2.3-8.8,1.4-16.8c0,0-1.3-22.4-22.2-26.4"/>
	</g>
	<g>
		<g>
			<path class="st0" d="M31,49.8c-2.9,1.5-4.4,5.5-3.5,10.1c1,5,4.4,8.4,8,8c1.9,3.9,4.4,7.4,7.3,10.3c2.9,2.9,1.9,5.4-2,6.6
				l-4.4,1.5C22.6,90.8,9.2,98.1,8.5,118.9c0,0.5-0.1,1.1-0.2,1.7"/>
		</g>
		<path class="st0" d="M31,49.8c0,0-2.3-8.8-1.4-16.8c0,0,1.3-22.4,22.2-26.4"/>
	</g>
</g>
</svg>
