<?xml version="1.0" encoding="utf-8"?>
<!-- Generator: Adobe Illustrator 23.0.1, SVG Export Plug-In . SVG Version: 6.00 Build 0)  -->
<svg version="1.1" id="Layer_1" xmlns="http://www.w3.org/2000/svg" xmlns:xlink="http://www.w3.org/1999/xlink" x="0px" y="0px"
	 viewBox="0 0 109.7 130.3" style="enable-background:new 0 0 109.7 130.3;" xml:space="preserve">
<style type="text/css">
	.st0{fill:none;stroke:#B5D334;stroke-width:3;stroke-linecap:round;stroke-miterlimit:10;}
	.st1{fill:none;stroke:#B5D334;stroke-width:3;stroke-linecap:round;stroke-linejoin:round;stroke-miterlimit:10;}
</style>
<g>
	<path class="st0" d="M78.9,34.4c-7,3.2-16.1,4.8-24.2,4.8c-8.1,0-17.2-1.6-24.2-4.8"/>
	<path class="st0" d="M80.1,43.3c2.7,0.8,4.7,4.1,4.7,8.1c0,4.4-2.4,8-5.6,8.2c-1.8,6.7-5.5,12.5-10.4,16.4l0.8,7
		c0.1,1.1,0.7,2.1,1.7,2.8c0.3,0.2,0.7,0.4,1.1,0.5l17.7,5.1c2.3,0.5,4.6,1.7,6.9,3.6c3.6,3,6.1,7.2,7,11.7l4.1,20.8
		c0.1,0.3,0,0.6-0.2,0.8c-0.2,0.2-0.5,0.4-0.8,0.4l-19,0l-85.8,0c-0.3,0-0.6-0.1-0.8-0.4c-0.2-0.2-0.3-0.5-0.2-0.8l4.2-20.8
		c0.9-4.6,3.4-8.7,7-11.7c2.3-1.9,4.6-3.1,6.9-3.6l17.7-5.1c0.4-0.1,0.7-0.3,1.1-0.5c0.9-0.6,1.5-1.6,1.7-2.8l0.8-7
		c-5-3.9-8.6-9.6-10.4-16.4c-3.2-0.3-5.6-3.8-5.6-8.3c0-4,2-7.3,4.7-8.1"/>
	<path class="st0" d="M30.5,34.4c-1.1,5-0.9,8.9-0.9,8.9"/>
	<path class="st0" d="M79.7,43.2c0,0,0.2-3.9-0.8-8.9"/>
	<line class="st0" x1="38.4" y1="85.8" x2="54.7" y2="102.7"/>
	<line class="st0" x1="71.1" y1="85.8" x2="54.7" y2="102.7"/>
	<line class="st0" x1="78.9" y1="34.4" x2="78.9" y2="18.2"/>
	<line class="st0" x1="30.6" y1="18.2" x2="30.6" y2="34.4"/>
	<polyline class="st1" points="54.9,1.5 95,12.2 54.7,24.4 54.7,24.4 14.5,12.2 54.9,1.5 	"/>
	<line class="st1" x1="95" y1="18.5" x2="95" y2="32.6"/>
	<line class="st0" x1="74.3" y1="113.9" x2="89.8" y2="113.9"/>
	<path class="st1" d="M98.5,36.9c-1.9,1.9-5.1,1.9-7,0"/>
</g>
</svg>
