<?xml version="1.0" encoding="utf-8"?>
<!-- Generator: Adobe Illustrator 23.0.1, SVG Export Plug-In . SVG Version: 6.00 Build 0)  -->
<svg version="1.1" id="Layer_1" xmlns="http://www.w3.org/2000/svg" xmlns:xlink="http://www.w3.org/1999/xlink" x="0px" y="0px"
	 viewBox="0 0 130.5 95" style="enable-background:new 0 0 130.5 95;" xml:space="preserve">
<style type="text/css">
	.st0{fill:none;stroke:#B5D334;stroke-width:3;stroke-linecap:round;stroke-linejoin:round;stroke-miterlimit:10;}
</style>
<g>
	<path class="st0" d="M114,1.6C78.2-0.3,65.2,19.2,65.2,19.2V82c0,0,17.5-15.3,54.2-14.9L114,1.6z"/>
	<path class="st0" d="M16.5,1.6c35.7-1.9,48.7,17.6,48.7,17.6V82c0,0-17.5-15.3-54.2-14.9L16.5,1.6z"/>
	<path class="st0" d="M114.7,9.7c1-0.5,3-0.7,4.8-0.8c2.4-0.1,4.4,1.7,4.6,4.1l4.9,58.3c0.2,2.8-2.2,5.2-5,4.8
		c-7.9-1-23.7-1.3-44.2,7.3c0,0-0.2,0.6-0.7,1.6c-5.6,11.4-22.1,11.4-27.6,0c-0.5-1-0.7-1.6-0.7-1.6C30.2,74.7,14.4,75,6.5,76
		c-2.8,0.4-5.2-2-5-4.8L6.4,13c0.2-2.4,2.2-4.2,4.6-4.1c1.8,0.1,3.8,0.3,4.8,0.8"/>
</g>
</svg>
