<?xml version="1.0" encoding="utf-8"?>
<!-- Generator: Adobe Illustrator 23.0.1, SVG Export Plug-In . SVG Version: 6.00 Build 0)  -->
<svg version="1.1" id="Layer_1" xmlns="http://www.w3.org/2000/svg" xmlns:xlink="http://www.w3.org/1999/xlink" x="0px" y="0px"
	 viewBox="0 0 158.7 146.6" style="enable-background:new 0 0 158.7 146.6;" xml:space="preserve">
<style type="text/css">
	.st0{fill:none;stroke:#344154;stroke-width:3;stroke-linecap:round;stroke-miterlimit:10;}
</style>
<g>
	<path class="st0" d="M56.8,79.1c-6.8-8.6-10.7-14.9-13.5-20.3c-3.9-7.6-4-16.6-0.4-24.3L54.8,9.2"/>
	<polyline class="st0" points="102.5,89.3 131.2,125.2 108.7,143.9 83.3,112.2 	"/>
	<path class="st0" d="M104.4,9.2l11.9,25.2c3.6,7.7,3.5,16.7-0.4,24.3c-3.1,5.9-8.1,13.8-16.1,23.6l-49.3,61.6L28,125.2l51.1-64
		c19.9-24.4,25.1-39.4,26-47.5c0.5-4.6-2.4-8.8-6.9-9.8C94.3,3,88.8,2.1,81.7,2.1h-4.3C70.4,2.1,64.8,3,61,3.9
		c-4.5,1.1-7.4,5.3-6.9,9.8c0.9,7.6,4.5,19.9,21.4,41.6"/>
	<path class="st0" d="M99.7,30.2c0,0-10.8-1.8-20.2-1.8c-9.4,0-20.2,1.8-20.2,1.8"/>
</g>
</svg>
