<?xml version="1.0" encoding="utf-8"?>
<!-- Generator: Adobe Illustrator 23.0.1, SVG Export Plug-In . SVG Version: 6.00 Build 0)  -->
<svg version="1.1" id="Layer_1" xmlns="http://www.w3.org/2000/svg" xmlns:xlink="http://www.w3.org/1999/xlink" x="0px" y="0px"
	 viewBox="0 0 158.7 146.6" style="enable-background:new 0 0 158.7 146.6;" xml:space="preserve">
<style type="text/css">
	.st0{fill:none;stroke:#344154;stroke-width:3;stroke-linecap:round;stroke-miterlimit:10;}
</style>
<g>
	<path class="st0" d="M21.7,139.7c0-5.3-0.1-13,0.5-18.9c0.4-4.4,6-6.1,8.8-2.6c1.9,2.4,3.8,4.6,5.7,6.6
		c19.9,20.8,51.4,26.1,76.4,12c33.4-18.9,40.5-60.9,40.5-60.9c6.6-33.5-9-51.4-18.4-57.3c-4.6-2.9-10-4.4-15.5-4.1
		c-10,0.5-14.2,6.6-15.9,12.5c-1.3,4.5-7.4,5-9.4,0.8C91.2,21,89.3,12.9,89.3,4V1.8"/>
	<path class="st0" d="M32.6,70.4v17.9c0,3.1,1.7,5.8,4.5,7.2c5.4,2.7,10.5,4.7,15,5.8c18.7,4.8,34.5-6.4,36.3-23.9
		c1.3-13.1-5.4-24.8-5.4-24.8c-11.7-21.9-12.1-43-12.1-43V1.8"/>
	<path class="st0" d="M3.7,139.7v-22.8c0-10.8,6.6-17.4,10.9-20.5c2.2-1.6,3.5-4.1,3.5-6.8V70.4"/>
</g>
</svg>
