<?xml version="1.0" encoding="utf-8"?>
<!-- Generator: Adobe Illustrator 23.0.1, SVG Export Plug-In . SVG Version: 6.00 Build 0)  -->
<svg version="1.1" id="Layer_1" xmlns="http://www.w3.org/2000/svg" xmlns:xlink="http://www.w3.org/1999/xlink" x="0px" y="0px"
	 viewBox="0 0 158.7 146.6" style="enable-background:new 0 0 158.7 146.6;" xml:space="preserve">
<style type="text/css">
	.st0{fill:none;stroke:#344154;stroke-width:3;stroke-linecap:round;stroke-miterlimit:10;}
</style>
<g>
	<g>
		<ellipse transform="matrix(0.92 -0.3919 0.3919 0.92 -22.5568 37.0154)" class="st0" cx="79.4" cy="73.8" rx="44.5" ry="44.5"/>
		<path class="st0" d="M59.4,34c3-14.5-11.5-13.4-14.4-17.9c-2.9-4.5,1.6-9.5,1.6-9.5"/>
		<path class="st0" d="M41.9,49.8c0,0-7.3-0.7-10.1-4.8c-6-8.6-2.9-14-12.5-17"/>
		<path class="st0" d="M37.8,89.6c-12.5-2.2-18,3.8-18.8,9.5c0,0-0.7,9.6-8.7,7.5"/>
		<path class="st0" d="M51.3,39.3c0,0-12-0.6-14-15.1c0,0-0.3-13.3-15.6-14.5c0,0-7.5,0-10.3-4.8"/>
		<path class="st0" d="M43.3,99.8c0,0-12.1-3.3-14.2,9.4c0,0-0.9,19.6-18.3,13.1"/>
		<path class="st0" d="M50.6,107.7c-13.9,7.4-0.3,15-15,22.4"/>
		<path class="st0" d="M34.9,69.6c0,0-4.3-8.5-14.2-4c0,0-10.5,5.4-14.3-3.2"/>
		<path class="st0" d="M99.4,113.5c-3,14.5,11.5,13.4,14.4,17.9c2.9,4.5-1.6,9.5-1.6,9.5"/>
		<path class="st0" d="M116.9,97.7c0,0,7.3,0.7,10.1,4.8c6,8.6,2.9,14,12.5,17"/>
		<path class="st0" d="M121,57.9c12.5,2.2,18-3.8,18.8-9.5c0,0,0.7-9.6,8.7-7.5"/>
		<path class="st0" d="M107.5,108.1c0,0,12,0.6,14,15.1c0,0,0.3,13.3,15.6,14.5c0,0,7.5,0,10.3,4.8"/>
		<path class="st0" d="M115.5,47.6c0,0,12.1,3.3,14.2-9.4c0,0,0.9-19.6,18.3-13.1"/>
		<path class="st0" d="M108.2,39.7c13.9-7.4,0.3-15,15-22.4"/>
		<path class="st0" d="M123.9,77.9c0,0,4.3,8.5,14.2,4c0,0,10.5-5.4,14.3,3.2"/>
		<path class="st0" d="M89.7,30.5c0,0-5.8-8.3,2.6-15.6c0,0,7.3-6.1,4-12.3"/>
		<path class="st0" d="M76.4,29.4c0,0-4.3-11.3,5.1-19"/>
		<path class="st0" d="M76.4,118.3c0,0,3.4,8.5-1.7,19.7"/>
		<path class="st0" d="M62.3,114.9c0,0,3.5,7.7-4.1,19c0,0-4.8,7,1.5,10.7"/>
	</g>
	<path class="st0" d="M61.1,52.6c0,2.5-2.1,4.6-4.6,4.6s-4.6-2.1-4.6-4.6c0-2.5,2.1-4.6,4.6-4.6S61.1,50,61.1,52.6z"/>
	<path class="st0" d="M80.2,41.5c0,2.5-2.1,4.6-4.6,4.6c-2.5,0-4.6-2.1-4.6-4.6c0-2.5,2.1-4.6,4.6-4.6
		C78.2,36.9,80.2,38.9,80.2,41.5z"/>
	<path class="st0" d="M106,78.8c0,2.5-2.1,4.6-4.6,4.6c-2.5,0-4.6-2.1-4.6-4.6s2.1-4.6,4.6-4.6C103.9,74.2,106,76.2,106,78.8z"/>
	<path class="st0" d="M58,86.4c0,2.5-2.1,4.6-4.6,4.6s-4.6-2.1-4.6-4.6c0-2.5,2.1-4.6,4.6-4.6S58,83.9,58,86.4z"/>
	<path class="st0" d="M84,82.8c0,3.6-2.9,6.5-6.5,6.5c-3.6,0-6.5-2.9-6.5-6.5c0-3.6,2.9-6.5,6.5-6.5C81.1,76.3,84,79.2,84,82.8z"/>
	<path class="st0" d="M91.4,59.1c0,3.6-2.9,6.5-6.5,6.5c-3.6,0-6.5-2.9-6.5-6.5c0-3.6,2.9-6.5,6.5-6.5
		C88.5,52.6,91.4,55.5,91.4,59.1z"/>
	<path class="st0" d="M89.4,104.1c0,2.5-2.1,4.6-4.6,4.6c-2.5,0-4.6-2.1-4.6-4.6c0-2.5,2.1-4.6,4.6-4.6
		C87.4,99.5,89.4,101.5,89.4,104.1z"/>
	<path class="st0" d="M110.6,54.4c0,2.5-2.1,4.6-4.6,4.6c-2.5,0-4.6-2.1-4.6-4.6s2.1-4.6,4.6-4.6C108.5,49.8,110.6,51.8,110.6,54.4z
		"/>
	<circle class="st0" cx="112.1" cy="68.2" r="0.3"/>
	<circle class="st0" cx="102.9" cy="95.6" r="0.3"/>
	<circle class="st0" cx="66.8" cy="67.2" r="0.3"/>
	<circle class="st0" cx="50.6" cy="69.6" r="0.3"/>
	<circle class="st0" cx="66.5" cy="100.3" r="0.3"/>
</g>
</svg>
