<?xml version="1.0" encoding="utf-8"?>
<!-- Generator: Adobe Illustrator 23.0.1, SVG Export Plug-In . SVG Version: 6.00 Build 0)  -->
<svg version="1.1" id="Layer_1" xmlns="http://www.w3.org/2000/svg" xmlns:xlink="http://www.w3.org/1999/xlink" x="0px" y="0px"
	 viewBox="0 0 158.7 146.6" style="enable-background:new 0 0 158.7 146.6;" xml:space="preserve">
<style type="text/css">
	.st0{fill:none;stroke:#344154;stroke-width:3;stroke-linecap:round;stroke-miterlimit:10;}
</style>
<g id="XMLID_7941_">
	<path id="XMLID_7962_" class="st0" d="M149.9,144.6H20.2c-6.8,0-12.3-5.5-12.3-12.3V2.6h129.7c6.8,0,12.3,5.5,12.3,12.3V144.6z"/>
	<line id="XMLID_7961_" class="st0" x1="19.6" y1="14.3" x2="62.2" y2="14.3"/>
	<line id="XMLID_7960_" class="st0" x1="19.6" y1="24.4" x2="40.9" y2="24.4"/>
	<g id="XMLID_7942_">
		<path id="XMLID_7959_" class="st0" d="M47.6,44.8c0,0,8.2,8,26.6,5.5"/>
		<path id="XMLID_7958_" class="st0" d="M70,62.4c-12.5,0.3-17.8-1.2-22.4-3.6c-3.3-1.8-5.2-5.5-4.1-9.2c0,0,0-0.1,0-0.1"/>
		<path id="XMLID_7957_" class="st0" d="M39.4,61.1c-0.8,3.5,0.8,7.4,4.1,9c6,2.9,12.5,4.4,24,4"/>
		<path id="XMLID_7956_" class="st0" d="M35.3,74c0,0-0.4,4.5,5.7,7.7c0,0,8.2,4.6,23.5,4.6"/>
		<path id="XMLID_7955_" class="st0" d="M32.5,85.5c0,0,0.4,5.6,7.9,7.9c0,0,10.2,2.9,19.1,3.3"/>
		<path id="XMLID_7954_" class="st0" d="M37.4,92.6c0,0-5.5,13.4,1.8,22.3c4.2,5.1,11.4,6.1,16.4,1.9c4.3-3.6,10.3-7.8,17.9-7.8"/>
		<path id="XMLID_7953_" class="st0" d="M110.2,44.8c0,0-8.2,8-26.6,5.5"/>
		<path id="XMLID_7952_" class="st0" d="M110.2,44.8c0,0-0.9-6.7-9.2-11.7c-3.4-2.1-7.7-2.1-11.3-0.3c-3,1.5-7.1,3.2-10.8,3.2
			s-7.7-1.6-10.8-3.2c-3.6-1.8-7.9-1.7-11.3,0.3c-8.3,5-9.2,11.7-9.2,11.7"/>
		<path id="XMLID_7951_" class="st0" d="M87.9,62.4c12.5,0.3,17.8-1.2,22.4-3.6c3.3-1.8,5.2-5.5,4.1-9.2c0,0,0-0.1,0-0.1"/>
		<path id="XMLID_7950_" class="st0" d="M118.5,61.1c0.8,3.5-0.8,7.4-4.1,9c-6,2.9-12.5,4.4-24,4"/>
		<path id="XMLID_7949_" class="st0" d="M122.5,74c0,0,0.4,4.5-5.7,7.7c0,0-8.2,4.6-23.5,4.6"/>
		<path id="XMLID_7948_" class="st0" d="M125.4,85.5c0,0-0.4,5.6-7.9,7.9c0,0-10.2,2.9-19.1,3.3"/>
		<path id="XMLID_7947_" class="st0" d="M120.4,92.6c0,0,5.5,13.4-1.8,22.3c-4.2,5.1-11.4,6.1-16.4,1.9c-4.3-3.6-10.3-7.8-17.9-7.8"
			/>
		<path id="XMLID_7946_" class="st0" d="M73.5,86.3c0,0,0,19.3,0,26.5c0,1.5,1.2,2.7,2.7,2.7h5.4c1.5,0,2.7-1.2,2.7-2.7V86.3"/>
		<path id="XMLID_7945_" class="st0" d="M73.5,122c0,0,0,0.6,0,1.3c0,1.5,1.2,2.6,2.6,2.6l5.5,0c1.5,0,2.6-1.2,2.6-2.6V122"/>
		<path id="XMLID_7944_" class="st0" d="M73.5,131.9c0,0,0,0.6,0,1.3c0,1.5,1.2,2.6,2.6,2.6l5.5,0c1.5,0,2.6-1.2,2.6-2.6v-1.3"/>
		<path id="XMLID_7943_" class="st0" d="M84.7,29.5c0,0-0.7-1.3-1-3.6c-0.2-1.2-1.1-2.1-2.3-2.1h-2.5h-2.5c-1.2,0-2.2,0.9-2.3,2.1
			c-0.3,2.3-1,3.6-1,3.6"/>
	</g>
</g>
</svg>
