<?xml version="1.0" encoding="utf-8"?>
<!-- Generator: Adobe Illustrator 18.1.1, SVG Export Plug-In . SVG Version: 6.00 Build 0)  -->
<svg version="1.1" id="Layer_1" xmlns="http://www.w3.org/2000/svg" xmlns:xlink="http://www.w3.org/1999/xlink" x="0px" y="0px"
	 viewBox="0 0 32 32" enable-background="new 0 0 32 32" xml:space="preserve">
<path fill="#FFFFFF" d="M24,3c2.8,0,5,2.2,5,5v16c0,2.8-2.2,5-5,5H8c-2.8,0-5-2.2-5-5V8c0-2.8,2.2-5,5-5H24 M24,0H8C3.6,0,0,3.6,0,8
	v16c0,4.4,3.6,8,8,8h16c4.4,0,8-3.6,8-8V8C32,3.6,28.4,0,24,0L24,0z"/>
<path fill="#FFFFFF" d="M16,11c2.8,0,5,2.2,5,5s-2.2,5-5,5s-5-2.2-5-5S13.2,11,16,11 M16,8c-4.4,0-8,3.6-8,8s3.6,8,8,8s8-3.6,8-8
	S20.4,8,16,8L16,8z"/>
<circle fill="#FFFFFF" cx="24.5" cy="7.5" r="2"/>
</svg>
