<?xml version="1.0" encoding="utf-8"?>
<!-- Generator: Adobe Illustrator 18.1.1, SVG Export Plug-In . SVG Version: 6.00 Build 0)  -->
<svg version="1.1" id="Layer_1" xmlns="http://www.w3.org/2000/svg" xmlns:xlink="http://www.w3.org/1999/xlink" x="0px" y="0px"
	 viewBox="0 0 32 32" enable-background="new 0 0 32 32" xml:space="preserve">
<g id="black">
	<g id="slice" transform="translate(-600.000000, 0.000000)">
	</g>
	<g id="linkedin" transform="translate(16.000000, 17.000000)">
		<path fill="#FFFFFF" d="M-9.3,14.9V-6.2h-6.5v21.1H-9.3z M-9.3-13.6c0-1.9-1.3-3.3-3.3-3.3s-3.4,1.4-3.4,3.3
			c0,1.8,1.3,3.3,3.3,3.3l0,0C-10.6-10.3-9.3-11.8-9.3-13.6z M1.3,14.9v-12c0-0.6,0-1.3,0.2-1.7C2-0.1,3.2-1.4,5.2-1.4
			c2.6,0,4.2,1.5,4.2,4.4v12H16V2.6c0-6.6-3.5-9.7-8.2-9.7c-3.9,0-5.5,2.2-6.5,3.6v-2.8h-6.6c0.1,2,0,21.2,0,21.2L1.3,14.9L1.3,14.9
			z"/>
	</g>
</g>
</svg>
