<?xml version="1.0" encoding="utf-8"?>
<!-- Generator: Adobe Illustrator 18.1.1, SVG Export Plug-In . SVG Version: 6.00 Build 0)  -->
<svg version="1.1" id="Layer_1" xmlns="http://www.w3.org/2000/svg" xmlns:xlink="http://www.w3.org/1999/xlink" x="0px" y="0px"
	 viewBox="-786 630 32 32" enable-background="new -786 630 32 32" xml:space="preserve">
<path fill="#FFFFFF" d="M-754.9,634.5c-1.3,0.8-2.7,1.3-4.2,1.6c-1.2-1.3-2.9-2.1-4.8-2.1c-3.6,0-6.6,3-6.6,6.7c0,0.5,0.1,1,0.2,1.5
	c-5.5-0.3-10.3-3-13.5-7c-0.6,1-2.5,5.5,2,9c-1.5,0-3-0.8-3-0.8s-0.2,5.4,5.3,6.7c-1.5,0.4-3,0.1-3,0.1s1.2,4.5,6.1,4.7
	c-4.1,3.4-9.2,2.8-9.7,2.8c2.9,1.9,6.4,3,10.1,3c12.1,0,18.7-10.3,18.7-19.2c0-0.3,0-0.6,0-0.9c1.3-0.9,2.4-2.1,3.3-3.5
	c-1.2,0.5-2.4,0.9-3.8,1.1C-756.4,637.4-755.4,636.1-754.9,634.5z"/>
</svg>
