<!-- Copyright © 2015 MODULUS Sp. z o. o. / FUTURAMO™ --><svg xmlns="http://www.w3.org/2000/svg" x="0px" y="0px" width="64px" height="64px" viewBox="0 0 32 32"><path fill="#FFFFFF" d="M4.112,4.341C2.055,4.426,0.396,6.059,0.284,8.115C0.149,10.594,0,13.818,0,16 c0,2.186,0.149,5.416,0.285,7.897c0.112,2.056,1.762,3.683,3.819,3.773C7.418,27.815,12.355,28,16,28s8.582-0.185,11.896-0.329 c2.053-0.09,3.707-1.721,3.819-3.773C31.851,21.416,32,18.186,32,16c0-2.183-0.149-5.409-0.284-7.889 c-0.112-2.058-1.766-3.687-3.825-3.774C24.437,4.192,19.299,4,16.125,4C12.928,4,7.639,4.195,4.112,4.341z M13.446,20.752 c-0.093,0.052-0.206,0.05-0.298-0.004C13.056,20.695,13,20.596,13,20.49v-8.98c0-0.106,0.056-0.205,0.148-0.259 c0.092-0.054,0.205-0.055,0.298-0.004l8.082,4.49c0.095,0.053,0.154,0.153,0.154,0.262c0,0.109-0.059,0.209-0.154,0.262 L13.446,20.752z"></path></svg>