<?xml version="1.0" encoding="utf-8"?>
<!-- Generator: Adobe Illustrator 18.1.1, SVG Export Plug-In . SVG Version: 6.00 Build 0)  -->
<svg version="1.1" id="Layer_1" xmlns="http://www.w3.org/2000/svg" xmlns:xlink="http://www.w3.org/1999/xlink" x="0px" y="0px"
	 viewBox="0 0 128 128" enable-background="new 0 0 128 128" xml:space="preserve">
<rect display="none" fill="#333333" width="128" height="128"/>
<path id="border_1_" fill="#D7D392" d="M64,6c32,0,58,26,58,58s-26,58-58,58S6,96,6,64S32,6,64,6 M64,0C28.7,0,0,28.7,0,64
	s28.7,64,64,64s64-28.7,64-64S99.3,0,64,0L64,0z"/>
<circle id="multiply" opacity="0.6" fill="#0A3321" cx="64" cy="64" r="59"/>
<circle id="green" opacity="0.7" fill="#115135" cx="64" cy="64" r="59"/>
<path id="shapes" fill="#FFFFFF" d="M69.1,79c3.4,3.7,10.2,12.7,5.3,16.9c-2.2,1.9-5,3.2-9.1,2c-0.9-0.7-0.4-2.7,0.2-3.6
	c1.8-2.4,4.7-1.5,5.5-2.7c0.8-1.2,0.2-2-0.3-2.7c-0.7-0.8-1.9-0.6-2.8-0.3c-1.6,0.3-3,1.1-3.9,2.1v0.1c0,0,0,0,0,0c0,0,0,0,0,0v-0.1
	c-0.9-1-2.2-1.8-3.8-2.1c-0.9-0.3-2.1-0.5-2.8,0.3c-0.5,0.7-1,1.5-0.3,2.7c0.8,1.2,3.7,0.2,5.5,2.7c0.6,0.9,1.1,2.9,0.2,3.6
	c-4,1.2-6.9-0.1-9.1-2c-5-4.2,1.8-13.2,5.2-16.9c1.8-2,3.2-3.7,5-3.8v0v0v0v0C65.9,75.2,67.3,77,69.1,79z M70.7,99
	c-2.2,0.3-4.6,0.8-6.5,0.7c-1.9,0.1-4.4-0.4-6.6-0.7c-0.3,0-0.6,0.3-0.6,0.3c-1.3,2.8,6.2,4.3,7.1,4.1c0.8,0.2,8.4-1.3,7.1-4.1
	C71.2,99.3,71,99,70.7,99z M37.2,51.3c-2.4,0.4-2.8,3.8-1,5.8c-1.6-0.2-3.9-2.4-9.6-0.6c-1.9,0.6-4.2,1.3-4.4,3.9
	c-0.2,1.8,2.3,3.8,3.9,5c1.7,1.3,4.2,1.3,5.6,3.4c1.1,1.8,2,4.4,2.3,6.8c0.5,4.5,0.4,10.2,3.6,14c0.7-2.3-1-7.3-1.1-13.8
	c0-2.4-0.9-5.2-2.4-7c2.6-0.3,2.7,0.2,2.9-0.7c0.3-0.8-0.3-1.8-0.8-2.4c-1.9-2.3-4.7-1.1-7.1-1.8c-1.6-0.6-4-1.3-4.2-3.6
	c-0.1-1.5,4.6-1.8,4.6-1.8c3.9,0.3,3.4,2.4,6,2.7c2.2,0.2,3-2.2,3.7-3.5C40.3,55.4,41.5,50.7,37.2,51.3z M49.8,93.5
	c-3.2-4.7-5.8-9.7-6.9-12.8c-1.9-4-2.8-10.5-2.6-14.8c0.3-2.2,0.8-4.8,2.7-6c1.3-0.6,2.9-0.9,4.3-0.4c2.3,0.7,2.9,2.7,4.2,4.5
	c1.3,1.9,3.4,3.3,5,3.9c1.1,2.4-0.8,8.4-2.5,11.1C53,81.1,48.9,86,49.8,93.5z M49.1,69.3c1.2,1.9,1.5,2.2,1.9,2
	c1.1-4.4-4-10.2-5.9-8.4c-1.5,1.4-1.6,3.6,0.1,4.6C46.2,68.1,48.3,67.8,49.1,69.3z M106.3,60.4c-0.2-2.5-2.5-3.3-4.5-3.9
	c-5.6-1.8-8,0.4-9.5,0.6c1.7-2,1.3-5.4-1-5.8c-4.4-0.7-3.1,4-2.1,6.2c0.7,1.3,1.5,3.7,3.7,3.5c2.5-0.3,2.1-2.4,6-2.7
	c0,0,4.7,0.3,4.6,1.8c-0.2,2.3-2.6,3-4.2,3.6c-2.4,0.8-5.1-0.4-7,1.8c-0.6,0.7-1.1,1.6-0.8,2.4c0.3,0.8,0.3,0.4,2.9,0.7
	c-1.3,1.8-2.3,4.5-2.3,7c-0.1,6.5-1.8,11.5-1.1,13.8c3.1-3.8,3-9.5,3.5-14c0.3-2.4,1.2-5,2.3-6.8c1.4-2,3.9-2.1,5.6-3.4
	C104.1,64.2,106.5,62.3,106.3,60.4z M124,64c0,33.1-26.9,60-60,60C30.9,124,4,97.1,4,64C4,30.9,30.9,4,64,4C97.1,4,124,30.9,124,64z
	 M108.9,99.9c3.7-5.1,7.4-11.1,9.3-17.4c-1.6,3.6-11.7,18.6-16.3,18.9c-4.6,0.3,4.6-12.2,10.9-17.4c1.4-1.3,3.2-2.7,3.5-5.1
	c0.3-1.7-0.6-2.8-2.2-2.9c-2.5-0.2-9.1,3.3-9.2,3.2c11.3-20.6-6-30.9,1.2-35.5c2.4-1.5,7.8,0.1,10.7,0.4c-26.6-15.8-31.3,0-39.3,7.3
	c-1.3,1.2-6.9,0-8-1.3c-1.4-1.8-4.3-8-1.1-12.1c4.7-6,24.1-23.6,41.6-8c-8.6-14-28.3-24.4-45.9-23.9c-17.6-0.5-37.4,9.9-46,23.9
	c17.6-15.6,37,2,41.7,8c3.2,4,0.3,10.3-1.1,12.1c-1.1,1.3-6.7,2.5-8,1.3c-8-7.3-12.7-23.2-39.4-7.3c2.9-0.3,8.3-1.9,10.7-0.4
	c7.2,4.6-10.1,14.9,1.2,35.5c-0.1,0.1-6.7-3.4-9.2-3.2c-1.6,0.1-2.4,1.2-2.2,2.9c0.3,2.4,2.1,3.8,3.5,5.1
	c6.3,5.2,15.4,17.7,10.9,17.4c-4.6-0.3-14.7-15.3-16.3-18.9c1.9,6.2,5.6,12.2,9.3,17.4c2,2.7,4.3,5,7.2,6c1.9,0.8,3.7,1.1,5.6,0.2
	c1.5-0.7,2.4-2.1,2.7-3.7c0.3-2.4-1-5.3-2.2-7.2c-1.6-2.7-5.3-7.4-9.5-10.6c-6-4.5-10.2-5.7-8.6-6.7c1-0.8,6.7,2.4,7.9,3
	c6.3,3.3,15.2,13,16.2,20.1c0.8,5.6-5.6,9.7-9.9,8.2c14.2,12.2,30.1,12.6,35.6,12.8c5.5-0.2,21.2-0.6,35.4-12.8
	c-4.4,1.5-10.7-2.5-9.9-8.2c1-7.1,9.8-16.8,16.1-20.1c1.2-0.7,6.9-3.8,7.9-3c1.6,1-2.6,2.3-8.6,6.7c-4.2,3.2-7.9,7.9-9.5,10.6
	c-1.2,1.9-2.4,4.8-2.1,7.2c0.3,1.6,1.1,3,2.6,3.7c1.9,0.9,3.7,0.6,5.6-0.2C104.6,104.9,106.8,102.6,108.9,99.9z M87.7,66
	c0.2,4.3-0.7,10.7-2.6,14.8c-1.1,3-3.7,8.1-6.9,12.8c0.8-7.5-3.3-12.4-4.2-14.4c-1.8-2.7-3.6-8.7-2.5-11.1c1.7-0.7,3.8-2,5-3.9
	c1.3-1.8,1.9-3.8,4.2-4.5c1.4-0.5,3-0.2,4.3,0.4C86.9,61.2,87.5,63.8,87.7,66z M83.3,62.9c-1.9-1.8-7,4-5.9,8.4
	c0.5,0.2,0.7-0.2,1.9-2c0.8-1.5,2.9-1.2,3.9-1.8C84.9,66.4,84.9,64.3,83.3,62.9z"/>
</svg>
