<?xml version="1.0" encoding="utf-8"?>
<!-- Generator: Adobe Illustrator 18.1.1, SVG Export Plug-In . SVG Version: 6.00 Build 0)  -->
<svg version="1.1" id="Layer_1" xmlns="http://www.w3.org/2000/svg" xmlns:xlink="http://www.w3.org/1999/xlink" x="0px" y="0px"
	 viewBox="0 0 20 20" enable-background="new 0 0 20 20" xml:space="preserve">
<g>
	<path fill="#FFFFFF" d="M10,10L2.5,7L3,18H1L1.5,6.6L0,6l10-4l10,4L10,10z M10,11l5.6-2.2c0.7,1,1.2,2.1,1.4,3.3
		C16.6,12,16.3,12,16,12c-1.3,0-2.4,0.3-3.5,0.9c-1.1,0.6-1.9,1.4-2.5,2.5c-0.6-1-1.5-1.9-2.5-2.5C6.4,12.3,5.3,12,4,12
		c-0.3,0-0.6,0-0.9,0.1c0.2-1.2,0.6-2.3,1.4-3.3L10,11z M10.7,5.1C10.5,5,10.3,5,10,5S9.5,5,9.3,5.1C9.1,5.2,9,5.4,9,5.5
		c0,0.1,0.1,0.3,0.3,0.4C9.5,6,9.7,6,10,6s0.5,0,0.7-0.1C10.9,5.8,11,5.6,11,5.5C11,5.4,10.9,5.2,10.7,5.1z"/>
</g>
<g>
	<path fill="#AA482E" d="M12,16c0-1.1,0.4-2,1.2-2.8C14,12.4,14.9,12,16,12s2,0.4,2.8,1.2C19.6,14,20,14.9,20,16s-0.4,2-1.2,2.8
		C18.1,19.6,17.1,20,16,20s-2-0.4-2.8-1.2C12.4,18.1,12,17.1,12,16z M13,15.8c-0.1,0.7,0.1,1.4,0.6,2l4.2-4.2
		c-0.6-0.4-1.2-0.6-2-0.6c-0.7,0.1-1.4,0.3-1.9,0.9C13.4,14.4,13.1,15,13,15.8z M14.3,18.5c0.6,0.4,1.2,0.6,2,0.6
		c0.7-0.1,1.4-0.4,1.9-0.9c0.5-0.5,0.8-1.2,0.9-1.9c0.1-0.7-0.1-1.4-0.6-2L14.3,18.5z"/>
</g>
</svg>
