<!-- Copyright © 2015 MODULUS Sp. z o. o. / FUTURAMO™ --><svg xmlns="http://www.w3.org/2000/svg" x="0px" y="0px" width="16px" height="16px" viewBox="0 0 32 32"><path  fill="#FFFFFF" d="M24.411,0.581C24.023,0.194,23.516,0,23.009,0c-0.507,0-1.015,0.194-1.402,0.581l-8.411,8.411 c-0.774,0.774-0.774,2.029,0,2.803l2.453,2.453l-1.402,1.402l-2.453-2.453c-0.387-0.387-0.894-0.581-1.402-0.581 c-0.507,0-1.015,0.194-1.402,0.581l-8.411,8.411c-0.774,0.774-0.774,2.029,0,2.804l7.009,7.009C7.977,31.806,8.484,32,8.991,32 s1.015-0.194,1.402-0.581l8.411-8.411c0.774-0.774,0.774-2.029,0-2.804l-2.453-2.453l1.402-1.402l2.453,2.453 c0.387,0.387,0.894,0.581,1.402,0.581s1.015-0.194,1.402-0.581l8.411-8.411c0.774-0.774,0.774-2.029,0-2.804L24.411,0.581z  M15.963,21.607l-6.971,6.971l-5.57-5.57l6.971-6.971l1.734,1.734l-2.431,2.431c-0.195,0.195-0.195,0.512,0,0.707l1.396,1.396 c0.195,0.195,0.512,0.195,0.707,0l2.431-2.431L15.963,21.607z M21.607,15.963l-1.734-1.734l2.431-2.431 c0.195-0.195,0.195-0.512,0-0.707l-1.396-1.396c-0.195-0.195-0.512-0.195-0.707,0l-2.431,2.431l-1.734-1.734l6.971-6.971l5.57,5.57 L21.607,15.963z"></path></svg>