<!-- Copyright © 2015 MODULUS Sp. z o. o. / FUTURAMO™ --><svg xmlns="http://www.w3.org/2000/svg" x="0px" y="0px" width="32px" height="32px" viewBox="0 0 32 32"><path  fill="#FFFFFF" d="M8.151,27.593L7.148,29.33c-1.001-0.666-1.901-1.44-2.728-2.309l1.531-1.285C6.003,25.789,7,27,8.151,27.593 z M19.406,29.567l0.347,1.969c1.153-0.277,2.279-0.679,3.359-1.215l-1.002-1.735C21.246,29.006,20.342,29.334,19.406,29.567z  M15.999,30c-0.484,0-0.964-0.027-1.44-0.075l-0.346,1.965c1.194,0.133,2.379,0.133,3.573,0l-0.346-1.965 C16.963,29.973,16.483,30,15.999,30z M23.846,27.593l1.003,1.737c1.001-0.666,1.901-1.44,2.728-2.309l-1.531-1.285 C25.994,25.789,25,27,23.846,27.593z M28.765,21.711c-0.387,0.867-0.867,1.7-1.438,2.489l1.534,1.287 c0.721-0.975,1.321-2.009,1.792-3.089L28.765,21.711z M9.887,28.586l-1.002,1.735c1.08,0.536,2.206,0.938,3.359,1.215l0.347-1.969 C11.655,29.334,10.751,29.006,9.887,28.586z M27.509,4.897c-0.067-0.07-0.128-0.143-0.197-0.211C24.188,1.562,20.093,0,15.999,0 c-4.095,0-8.19,1.562-11.314,4.686C0.398,8.973-0.946,15.088,0.65,20.522c0.187,0.637,0.427,1.261,0.695,1.875 c0.471,1.08,1.071,2.114,1.792,3.089L4.671,24.2c-0.572-0.789-1.052-1.622-1.438-2.489c-0.273-0.613-0.508-1.238-0.689-1.877 C1.206,15.108,2.387,9.813,6.099,6.1c2.644-2.644,6.16-4.1,9.9-4.1s7.255,1.456,9.899,4.1c0.09,0.09,0.162,0.191,0.249,0.283 L20.999,12h11V0L27.509,4.897z"></path></svg>