<?xml version="1.0" encoding="utf-8"?>
<!-- Generator: Adobe Illustrator 18.1.1, SVG Export Plug-In . SVG Version: 6.00 Build 0)  -->
<svg version="1.1" id="Слой_1" xmlns="http://www.w3.org/2000/svg" xmlns:xlink="http://www.w3.org/1999/xlink" x="0px" y="0px"
	 viewBox="244 -244 512 512" enable-background="new 244 -244 512 512" xml:space="preserve">
<path fill="#FFFFFF" d="M580.9-37.1v72.7c0,42.4-29.7,78.1-69.3,87.4c4.9,4.6,11,8.3,17.8,11.1c16,6.5,35.8,8.2,54.7,6.1
	c7.7-0.8,15.1-2.3,21.9-4.3c22.6-6.6,40.8-18.4,54.6-33.7C675.8,85.4,686,64,691.4,40.7c4.4-19,5.6-39.3,3.6-59.7
	c-1.9-20.5-7-40.9-15.1-60.2c-5.5-13.1-12.1-25.3-19.7-36.7c-7.5-11.1-15.9-21.3-25.3-30.5c-20.9-20.4-45.8-34.6-72.4-43
	c-28.4-9-58.7-11.3-88-7.3c-46.3,6.2-84.3,26.3-112.6,55.7C332-109.7,312.9-68,306.5-21c-2.2,16.5-2.9,32.6-2,48.3
	c2.9,50.3,21.9,95.1,52.9,128.9c31.1,33.9,74.4,56.9,126,63.9c16,2.2,32.8,2.8,50.3,1.8l2.2,39.5c-20,1.2-39.3,0.4-57.7-2.1
	C417,251,365.5,223.5,328.3,183c-37.2-40.5-59.9-93.7-63.3-153.6c-1.1-18-0.3-36.7,2.3-55.7c7.5-55.4,30.3-104.8,66.1-142.1
	c34.3-35.6,80.2-60,135.8-67.4c35.1-4.7,71.2-2,105.1,8.6c32.3,10.2,62.7,27.6,88.2,52.5c11.3,11.1,21.5,23.4,30.6,36.9
	c9,13.3,16.7,27.8,23.3,43.3c9.7,23,15.7,47.4,18,71.8c2.3,24.6,0.9,49.1-4.4,72.2c-6.8,29.7-20.1,57-40.2,79.2
	c-18.6,20.6-42.8,36.5-72.9,45.2c-9.2,2.6-18.8,4.6-28.5,5.7c-24.9,2.8-51.5,0.3-73.9-8.9c-22.9-9.4-41.5-25.4-50.3-49.6
	c-36.2-11.5-62.7-45.6-62.7-85.5v-72.7h31.2v-93.7c0-9,7.4-16.3,16.4-16.3l0,0c9,0,16.3,7.4,16.3,16.3v93.7h48.5v-93.7
	c0-9,7.4-16.3,16.3-16.3l0,0c9,0,16.4,7.4,16.4,16.3v93.7L580.9-37.1L580.9-37.1z"/>
</svg>
