<?xml version="1.0" encoding="utf-8"?>
<!-- Generator: Adobe Illustrator 18.1.1, SVG Export Plug-In . SVG Version: 6.00 Build 0)  -->
<svg version="1.1" id="Layer_1" xmlns="http://www.w3.org/2000/svg" xmlns:xlink="http://www.w3.org/1999/xlink" x="0px" y="0px"
	 viewBox="0 0 16 16" enable-background="new 0 0 16 16" xml:space="preserve">
<g>
	<path fill="#FFFFFF" d="M1,15V9.4h5.6l-2.2,2.2c1,1,2.2,1.5,3.6,1.5c1.2,0,2.2-0.3,3.1-1c0.9-0.7,1.5-1.6,1.8-2.7h1.9
		c-0.3,1.6-1.1,3-2.4,4C11.2,14.5,9.7,15,8,15c-1.9,0-3.6-0.7-4.9-2L1,15z M1.1,6.6c0.3-1.6,1.1-3,2.4-4C4.8,1.5,6.3,1,8,1
		c1.9,0,3.6,0.7,5,2l2-2v5.6H9.4l2.2-2.2c-1-1-2.2-1.5-3.6-1.5c-1.2,0-2.2,0.4-3.1,1C4,4.6,3.4,5.5,3.1,6.6H1.1z"/>
</g>
</svg>
