<?xml version="1.0" encoding="utf-8"?>
<!-- Generator: Adobe Illustrator 21.0.0, SVG Export Plug-In . SVG Version: 6.00 Build 0)  -->
<svg version="1.1" id="Layer_1" xmlns="http://www.w3.org/2000/svg" xmlns:xlink="http://www.w3.org/1999/xlink" x="0px" y="0px"
	 viewBox="0 0 20 20" enable-background="new 0 0 20 20" xml:space="preserve">
<g>
	<rect x="6" y="1" fill="#85BAAF" width="4" height="17"/>
	<rect x="6" y="2" fill="#698781" width="4" height="1"/>
	<rect x="6" y="16" fill="#698781" width="4" height="1"/>
</g>
<g>
	<rect x="16" y="2" fill="#AA482E" width="4" height="16"/>
	<rect x="16" y="16" fill="#743C2E" width="4" height="1"/>
	<rect x="16" y="3" fill="#743C2E" width="4" height="1"/>
</g>
<g>
	<rect x="11" y="3" fill="#D0DB42" width="4" height="15"/>
	<rect x="11" y="16" fill="#909640" width="4" height="1"/>
	<rect x="11" y="4" fill="#909640" width="4" height="1"/>
</g>
<g>
	<rect x="1" y="4" fill="#E1963E" width="4" height="14"/>
	<rect x="1" y="5" fill="#996F3E" width="4" height="1"/>
	<rect x="1" y="16" fill="#996F3E" width="4" height="1"/>
</g>
<rect x="3" y="11" opacity="0.65" fill="#FFFFFF" width="0.5" height="4"/>
<rect x="3" y="7" opacity="0.65" fill="#FFFFFF" width="0.5" height="3"/>
<rect x="7" y="4" opacity="0.65" fill="#FFFFFF" width="0.5" height="3"/>
<rect x="7" y="8" opacity="0.65" fill="#FFFFFF" width="0.5" height="2"/>
<rect x="8" y="4" opacity="0.65" fill="#FFFFFF" width="0.5" height="7"/>
<rect x="8" y="12" opacity="0.65" fill="#FFFFFF" width="0.5" height="3"/>
<rect x="7" y="11" opacity="0.65" fill="#FFFFFF" width="0.5" height="3"/>
<rect x="17" y="5" opacity="0.65" fill="#FFFFFF" width="0.5" height="5"/>
<rect x="18" y="5" opacity="0.65" fill="#FFFFFF" width="0.5" height="10"/>
<rect x="17" y="11" opacity="0.65" fill="#FFFFFF" width="0.5" height="3"/>
<rect x="2" y="7" opacity="0.65" fill="#FFFFFF" width="0.5" height="2"/>
<rect x="2" y="10" opacity="0.65" fill="#FFFFFF" width="0.5" height="2"/>
<rect x="2" y="13" opacity="0.65" fill="#FFFFFF" width="0.5" height="1"/>
<rect x="13" y="10" opacity="0.65" fill="#FFFFFF" width="0.5" height="4"/>
<rect x="13" y="6" opacity="0.65" fill="#FFFFFF" width="0.5" height="3"/>
<rect x="12" y="6" opacity="0.65" fill="#FFFFFF" width="0.5" height="2"/>
<rect x="12" y="9" opacity="0.65" fill="#FFFFFF" width="0.5" height="3"/>
<rect x="12" y="13" opacity="0.65" fill="#FFFFFF" width="0.5" height="2"/>
</svg>
