<?xml version="1.0" encoding="utf-8"?>
<!-- Generator: Adobe Illustrator 18.1.1, SVG Export Plug-In . SVG Version: 6.00 Build 0)  -->
<svg version="1.1" id="Layer_1" xmlns="http://www.w3.org/2000/svg" xmlns:xlink="http://www.w3.org/1999/xlink" x="0px" y="0px"
	 viewBox="0 0 16 16" enable-background="new 0 0 16 16" xml:space="preserve">
<g>
	<path d="M-1263.4-20c-12.7,0-22.9,10.3-22.9,22.9c0,12.7,10.3,22.9,22.9,22.9c12.7,0,22.9-10.3,22.9-22.9
		C-1240.5-9.7-1250.8-20-1263.4-20z M-1263.5-10.3c4,0,7.2,3.2,7.2,7.2c0,4-3.2,7.2-7.2,7.2c-4,0-7.2-3.2-7.2-7.2
		C-1270.7-7-1267.5-10.3-1263.5-10.3z M-1250.6,19c-3.5,2.8-8,4.5-12.8,4.5c-4.8,0-9.3-1.7-12.8-4.5c0.3-5.8,4.2-11.7,8.8-11.7h8
		c4.7,0,8.5,5.7,8.8,11.5c0,0,0,0,0,0C-1250.6,18.8-1250.6,19-1250.6,19z"/>
</g>
<g>
	
		<rect x="5.5" y="1.7" transform="matrix(-0.7444 -0.6677 0.6677 -0.7444 8.0493 19.335)" fill="#FFFFFF" width="4.4" height="12.8"/>
	<polyline fill="#FFFFFF" points="0.7,16 4.5,15 1.3,12.1 0.7,16 	"/>
	
		<rect x="11" y="1.3" transform="matrix(-0.7444 -0.6677 0.6677 -0.7444 21.6192 12.3744)" fill="#FFFFFF" width="4.4" height="1.6"/>
</g>
</svg>
