<?xml version="1.0" encoding="utf-8"?>
<!-- Generator: Adobe Illustrator 18.1.1, SVG Export Plug-In . SVG Version: 6.00 Build 0)  -->
<svg version="1.1" xmlns="http://www.w3.org/2000/svg" xmlns:xlink="http://www.w3.org/1999/xlink" x="0px" y="0px"
	 viewBox="0 0 20 20" enable-background="new 0 0 20 20" xml:space="preserve">
<g id="Layer_2" display="none">
	<rect display="inline" fill="#1A1A1A" width="20" height="20"/>
</g>
<g id="Layer_3">
	<g>
		<path fill="#FFFFFF" d="M6.4,20c-0.1-0.1,0.2-0.8,0.8-2.1l1.8-4c0.6-1.4,0.9-2.1,0.8-2.2c0-0.1-0.7-0.4-2.1-1
			c-1.4-0.6-2.1-1-2.2-1.2C5.5,9.3,6.1,8.4,7.4,6.8c1.3-1.6,2.6-3.1,4-4.6s2.1-2.2,2.2-2.2c0.1,0.1-0.5,1.4-1.7,4.1
			c-1.2,2.7-1.8,4.1-1.7,4.1c0,0.1,0.7,0.4,2.1,1s2.1,1,2.2,1.3s-1.2,2-3.9,5C7.9,18.6,6.6,20.1,6.4,20z"/>
	</g>
</g>
</svg>
