<?xml version="1.0" encoding="utf-8"?>
<!-- Generator: Adobe Illustrator 18.1.1, SVG Export Plug-In . SVG Version: 6.00 Build 0)  -->
<svg version="1.1" xmlns="http://www.w3.org/2000/svg" xmlns:xlink="http://www.w3.org/1999/xlink" x="0px" y="0px"
	 viewBox="0 0 20 20" enable-background="new 0 0 20 20" xml:space="preserve">
<g id="Layer_2" display="none">
	<rect display="inline" fill="#1A1A1A" width="20" height="20"/>
</g>
<g id="Layer_3">
	<path fill="#FFFFFF" d="M9.8,11.7L8,11c-0.2,0.2-0.6,0.3-1,0.3c-0.4,0-0.8-0.2-1-0.3l-1.8,0.7L4,13h6L9.8,11.7z M7,7
		C6.2,7,5.4,7.9,5.7,8.9c0.1,0.6,0.3,1.1,0.5,1.5h0c0,0,0.3,0.4,0.8,0.4s0.8-0.4,0.8-0.4C8.1,10,8.2,9.5,8.3,8.9C8.6,7.9,7.8,7,7,7z
		"/>
	<path fill="#FFFFFF" d="M1,4v12h18V4H1z M18,15H2V5h16V15z"/>
	<rect x="11" y="7" fill="#FFFFFF" width="5" height="1"/>
	<rect x="11" y="9" fill="#FFFFFF" width="5" height="1"/>
	<rect x="11" y="11" fill="#FFFFFF" width="5" height="1"/>
</g>
</svg>
