<?xml version="1.0" encoding="utf-8"?>
<!-- Generator: Adobe Illustrator 18.1.1, SVG Export Plug-In . SVG Version: 6.00 Build 0)  -->
<svg version="1.1" id="Layer_1" xmlns="http://www.w3.org/2000/svg" xmlns:xlink="http://www.w3.org/1999/xlink" x="0px" y="0px"
	 viewBox="0 0 20 20" enable-background="new 0 0 20 20" xml:space="preserve">
<polygon fill="#003E46" points="10,14 15,11.5 10,9 5,11.5 "/>
<polygon fill="#06292E" points="10,20 10,14 5,11.5 5,17.5 "/>
<polygon fill="#FFAC4D" points="5,5.5 10,3 5,0.5 0,3 "/>
<polygon fill="#94D1C4" points="15,5.5 20,3 15,0.5 10,3 "/>
<polygon fill="#996F3E" points="5,11.5 5,5.5 0,3 0,9 "/>
<polygon fill="#698781" points="15,11.5 15,5.5 10,3 10,9 "/>
<polygon opacity="0.5" fill="#276E77" points="10,20 10,14 15,11.5 15,17.5 "/>
<polygon opacity="0.3" fill="#94D1C4" points="15,11.5 15,5.5 20,3 20,9 "/>
<polygon opacity="0.3" fill="#FFAC4D" points="5,11.5 5,5.5 10,3 10,9 "/>
</svg>
