<?xml version="1.0" encoding="utf-8"?>
<!-- Generator: Adobe Illustrator 18.1.1, SVG Export Plug-In . SVG Version: 6.00 Build 0)  -->
<svg version="1.1" id="Layer_1" xmlns="http://www.w3.org/2000/svg" xmlns:xlink="http://www.w3.org/1999/xlink" x="0px" y="0px"
	 viewBox="0 0 20 20" enable-background="new 0 0 20 20" xml:space="preserve">
<path fill="#D0DB42" d="M2.5,1.2c-0.3,0-0.6,0.3-0.6,0.6s0.3,0.6,0.6,0.6s0.6-0.3,0.6-0.6S2.8,1.2,2.5,1.2z"/>
<polygon fill="#FFFFFF" points="13.1,9.6 18.1,17.5 18.1,20 10.6,20 4.4,20 4.4,17.5 9.4,9.6 9.4,6.2 8.1,6.2 8.1,5 9.4,5 13.1,5 
	14.4,5 14.4,6.2 13.1,6.2 "/>
<polygon fill="#85BAAF" points="12.1,10.3 11.9,10 11.9,9.6 11.9,6.2 10.6,6.2 10.6,9.6 10.6,10 10.4,10.3 5.6,17.9 5.6,18.8 
	10.6,18.8 16.9,18.8 16.9,17.9 "/>
<circle fill="#E1963E" cx="11.2" cy="1.9" r="1.9"/>
<circle fill="#276E77" cx="6.9" cy="1.2" r="1.2"/>
<circle fill="#AA482E" cx="5.6" cy="5" r="1.2"/>
</svg>
