<?xml version="1.0" encoding="utf-8"?>
<!-- Generator: Adobe Illustrator 18.1.1, SVG Export Plug-In . SVG Version: 6.00 Build 0)  -->
<svg version="1.1" id="posts" xmlns="http://www.w3.org/2000/svg" xmlns:xlink="http://www.w3.org/1999/xlink" x="0px" y="0px"
	 viewBox="0 0 20 20" enable-background="new 0 0 20 20" xml:space="preserve">
<g>
	<path fill="#FFFFFF" d="M19.6,3.5c0,0.2-0.1,0.4-0.2,0.5L3.7,19.8C3.6,19.9,3.4,20,3.2,20c-0.2,0-0.4-0.1-0.5-0.2l-2.4-2.4
		C0.1,17.2,0,17,0,16.8c0-0.2,0.1-0.4,0.2-0.5L15.9,0.5c0.1-0.1,0.3-0.2,0.5-0.2c0.2,0,0.4,0.1,0.5,0.2L19.4,3
		C19.6,3.1,19.6,3.3,19.6,3.5z M3.2,1.2l1.2,0.4L3.2,1.9L2.8,3.1L2.4,1.9L1.2,1.6l1.2-0.4L2.8,0L3.2,1.2z M7.4,3.2l2.4,0.7L7.4,4.6
		L6.7,7L6,4.6L3.6,3.9L6,3.2l0.7-2.4L7.4,3.2z M11,1.2l1.2,0.4L11,1.9l-0.4,1.2l-0.4-1.2L9.1,1.6l1.2-0.4L10.6,0L11,1.2z M14.2,7.1
		l3.6-3.6l-1.3-1.3l-3.6,3.6L14.2,7.1z M18.8,9L20,9.4l-1.2,0.4l-0.4,1.2l-0.4-1.2l-1.2-0.4L18.1,9l0.4-1.2L18.8,9z"/>
</g>
</svg>
