<?xml version="1.0" encoding="utf-8"?>
<!-- Generator: Adobe Illustrator 18.1.1, SVG Export Plug-In . SVG Version: 6.00 Build 0)  -->
<svg version="1.1" id="Layer_1" xmlns="http://www.w3.org/2000/svg" xmlns:xlink="http://www.w3.org/1999/xlink" x="0px" y="0px"
	 viewBox="0 0 20 20" enable-background="new 0 0 20 20" xml:space="preserve">
<rect y="3" opacity="0.2" fill="#FFFFFF" width="20" height="17"/>
<g>
	<rect fill="#0C353B" width="20" height="3"/>
	<rect x="1" y="1" fill="#AA482E" width="1" height="1"/>
	<rect x="3" y="1" fill="#D0DB42" width="1" height="1"/>
	<rect x="5" y="1" fill="#94D1C4" width="1" height="1"/>
</g>
<rect x="14" y="17" fill="#E1963E" width="4" height="1"/>
<g>
	<rect x="7" y="8" opacity="0.3" fill="#FFFFFF" width="11" height="2"/>
	<g opacity="0.8">
		<path fill="#FFFFFF" d="M17.5,8.5v1h-10v-1H17.5 M18,8H7v2h11V8L18,8z"/>
	</g>
	<rect x="2" y="8" fill="#85BAAF" width="3" height="1"/>
</g>
<g>
	<rect x="7" y="13" opacity="0.3" fill="#FFFFFF" width="11" height="3"/>
	<g opacity="0.8">
		<path fill="#FFFFFF" d="M17.5,13.5v2h-10v-2H17.5 M18,13H7v3h11V13L18,13z"/>
	</g>
	<rect x="2" y="13" fill="#85BAAF" width="3" height="1"/>
</g>
<g>
	<rect x="2" y="5" fill="#94D1C4" width="3" height="1"/>
	<rect x="7" y="5" opacity="0.3" fill="#FFFFFF" width="5" height="2"/>
	<g opacity="0.8">
		<path fill="#FFFFFF" d="M11.5,5.5v1h-4v-1H11.5 M12,5H7v2h5V5L12,5z"/>
	</g>
	<rect x="13" y="5" opacity="0.3" fill="#FFFFFF" width="5" height="2"/>
	<g opacity="0.8">
		<path fill="#FFFFFF" d="M17.5,5.5v1h-4v-1H17.5 M18,5h-5v2h5V5L18,5z"/>
	</g>
</g>
<g>
	<rect x="2" y="11" fill="#85BAAF" width="3" height="1"/>
	<rect x="7" y="11" opacity="0.5" fill="#FFFFFF" width="1" height="1"/>
	<g opacity="0.7">
		<path fill="#FFFFFF" d="M7.8,11.2v0.5H7.2v-0.5H7.8 M8,11H7v1h1V11L8,11z"/>
	</g>
	<rect x="12" y="11" opacity="0.5" fill="#FFFFFF" width="1" height="1"/>
	<g opacity="0.7">
		<path fill="#FFFFFF" d="M12.8,11.2v0.5h-0.5v-0.5H12.8 M13,11h-1v1h1V11L13,11z"/>
	</g>
	<rect x="14" y="11" opacity="0.35" fill="#FFFFFF" width="4" height="1"/>
	<rect x="9" y="11" opacity="0.35" fill="#FFFFFF" width="2" height="1"/>
</g>
</svg>
