<?xml version="1.0" encoding="utf-8"?>
<!-- Generator: Adobe Illustrator 18.1.1, SVG Export Plug-In . SVG Version: 6.00 Build 0)  -->
<svg version="1.1" id="Layer_1" xmlns="http://www.w3.org/2000/svg" xmlns:xlink="http://www.w3.org/1999/xlink" x="0px" y="0px"
	 viewBox="0 0 20 20" enable-background="new 0 0 20 20" xml:space="preserve">
<rect x="1" y="5" fill="#003E46" width="18" height="12"/>
<path fill="#85BAAF" d="M11,4l3.5-3.5L14,0l-4,4L6,0L5.5,0.5L9,4H0v16h20V4H11z M14,19h-1v-1h1V19z M16,19h-1v-1h1V19z M18,19h-1v-1
	h1V19z M19,17H1V5h18V17z"/>
<polygon fill="#E1963E" points="12,11 8,13.5 8,8.5 "/>
<rect x="17" y="18" fill="#AA482E" width="1" height="1"/>
<rect x="15" y="18" fill="#D0DB42" width="1" height="1"/>
<rect x="13" y="18" fill="#E1963E" width="1" height="1"/>
</svg>
