<?xml version="1.0" encoding="utf-8"?>
<!-- Generator: Adobe Illustrator 18.1.1, SVG Export Plug-In . SVG Version: 6.00 Build 0)  -->
<svg version="1.1" xmlns="http://www.w3.org/2000/svg" xmlns:xlink="http://www.w3.org/1999/xlink" x="0px" y="0px"
	 viewBox="0 0 16 16" enable-background="new 0 0 16 16" xml:space="preserve">
<g id="base" display="none">
	<rect display="inline" fill="#1A1A1A" width="16" height="16"/>
</g>
<g id="grid_1_" display="none">
	<path id="light" display="inline" opacity="6.000000e-02" fill="#FFFFFF" d="M2,1H1V0h1V1z M4,0H3v1h1V0z M6,0H5v1h1V0z M8,0H7v1h1
		V0z M10,0H9v1h1V0z M12,0h-1v1h1V0z M14,0h-1v1h1V0z M16,0h-1v1h1V0z M14,2h1V1h-1V2z M12,2h1V1h-1V2z M10,2h1V1h-1V2z M8,2h1V1H8
		V2z M6,2h1V1H6V2z M4,2h1V1H4V2z M2,2h1V1H2V2z M0,2h1V1H0L0,2z M2,2H1v1h1V2z M4,2H3v1h1V2z M6,2H5v1h1V2z M8,2H7v1h1V2z M10,2H9
		v1h1V2z M12,2h-1v1h1V2z M14,2h-1v1h1V2z M16,2h-1v1h1V2z M14,4h1V3h-1V4z M12,4h1V3h-1V4z M10,4h1V3h-1V4z M8,4h1V3H8V4z M6,4h1V3
		H6V4z M4,4h1V3H4V4z M2,4h1V3H2V4z M0,4h1V3H0L0,4z M2,4H1v1h1V4z M4,4H3v1h1V4z M6,4H5v1h1V4z M8,4H7v1h1V4z M10,4H9v1h1V4z M12,4
		h-1v1h1V4z M14,4h-1v1h1V4z M16,4h-1v1h1V4z M14,6h1V5h-1V6z M12,6h1V5h-1V6z M10,6h1V5h-1V6z M8,6h1V5H8V6z M6,6h1V5H6V6z M4,6h1
		V5H4V6z M2,6h1V5H2V6z M0,6h1V5H0L0,6z M2,6H1v1h1V6z M4,6H3v1h1V6z M6,6H5v1h1V6z M8,6H7v1h1V6z M10,6H9v1h1V6z M12,6h-1v1h1V6z
		 M14,6h-1v1h1V6z M16,6h-1v1h1V6z M14,8h1V7h-1V8z M12,8h1V7h-1V8z M10,8h1V7h-1V8z M8,8h1V7H8V8z M6,8h1V7H6V8z M4,8h1V7H4V8z
		 M2,8h1V7H2V8z M0,8h1V7H0L0,8z M2,8H1v1h1V8z M4,8H3v1h1V8z M6,8H5v1h1V8z M8,8H7v1h1V8z M10,8H9v1h1V8z M12,8h-1v1h1V8z M14,8h-1
		v1h1V8z M16,8h-1v1h1V8z M14,10h1V9h-1V10z M12,10h1V9h-1V10z M10,10h1V9h-1V10z M8,10h1V9H8V10z M6,10h1V9H6V10z M4,10h1V9H4V10z
		 M2,10h1V9H2V10z M0,10h1V9H0L0,10z M2,10H1v1h1V10z M4,10H3v1h1V10z M6,10H5v1h1V10z M8,10H7v1h1V10z M10,10H9v1h1V10z M12,10h-1
		v1h1V10z M14,10h-1v1h1V10z M16,10h-1v1h1V10z M14,12h1v-1h-1V12z M12,12h1v-1h-1V12z M10,12h1v-1h-1V12z M8,12h1v-1H8V12z M6,12h1
		v-1H6V12z M4,12h1v-1H4V12z M2,12h1v-1H2V12z M0,12h1v-1H0L0,12z M2,12H1v1h1V12z M4,12H3v1h1V12z M6,12H5v1h1V12z M8,12H7v1h1V12z
		 M10,12H9v1h1V12z M12,12h-1v1h1V12z M14,12h-1v1h1V12z M16,12h-1v1h1V12z M14,14h1v-1h-1V14z M12,14h1v-1h-1V14z M10,14h1v-1h-1
		V14z M8,14h1v-1H8V14z M6,14h1v-1H6V14z M4,14h1v-1H4V14z M2,14h1v-1H2V14z M0,14h1v-1H0L0,14z M2,14H1v1h1V14z M4,14H3v1h1V14z
		 M6,14H5v1h1V14z M8,14H7v1h1V14z M10,14H9v1h1V14z M12,14h-1v1h1V14z M14,14h-1v1h1V14z M16,14h-1v1h1V14z M14,16h1v-1h-1V16z
		 M12,16h1v-1h-1V16z M10,16h1v-1h-1V16z M8,16h1v-1H8V16z M6,16h1v-1H6V16z M4,16h1v-1H4V16z M2,16h1v-1H2V16z M0,16h1v-1H0L0,16z"
		/>
	<path id="dark" display="inline" opacity="3.000000e-02" fill="#FFFFFF" d="M1,1H0V0h1V1z M3,0H2v1h1V0z M5,0H4v1h1V0z M7,0H6v1h1
		V0z M9,0H8v1h1V0z M11,0h-1v1h1V0z M13,0h-1v1h1V0z M15,0h-1v1h1V0z M15,2h1V1h-1V2z M13,2h1V1h-1V2z M11,2h1V1h-1V2z M9,2h1V1H9V2
		z M7,2h1V1H7V2z M5,2h1V1H5V2z M3,2h1V1H3V2z M1,2h1V1H1V2z M1,2H0v1h1V2z M3,2H2v1h1V2z M5,2H4v1h1V2z M7,2H6v1h1V2z M9,2H8v1h1V2
		z M11,2h-1v1h1V2z M13,2h-1v1h1V2z M15,2h-1v1h1V2z M15,4h1V3h-1V4z M13,4h1V3h-1V4z M11,4h1V3h-1V4z M9,4h1V3H9V4z M7,4h1V3H7V4z
		 M5,4h1V3H5V4z M3,4h1V3H3V4z M1,4h1V3H1V4z M1,4H0v1h1V4z M3,4H2v1h1V4z M5,4H4v1h1V4z M7,4H6v1h1V4z M9,4H8v1h1V4z M11,4h-1v1h1
		V4z M13,4h-1v1h1V4z M15,4h-1v1h1V4z M15,6h1V5h-1V6z M13,6h1V5h-1V6z M11,6h1V5h-1V6z M9,6h1V5H9V6z M7,6h1V5H7V6z M5,6h1V5H5V6z
		 M3,6h1V5H3V6z M1,6h1V5H1V6z M1,6H0v1h1V6z M3,6H2v1h1V6z M5,6H4v1h1V6z M7,6H6v1h1V6z M9,6H8v1h1V6z M11,6h-1v1h1V6z M13,6h-1v1
		h1V6z M15,6h-1v1h1V6z M15,8h1V7h-1V8z M13,8h1V7h-1V8z M11,8h1V7h-1V8z M9,8h1V7H9V8z M7,8h1V7H7V8z M5,8h1V7H5V8z M3,8h1V7H3V8z
		 M1,8h1V7H1V8z M1,8H0v1h1V8z M3,8H2v1h1V8z M5,8H4v1h1V8z M7,8H6v1h1V8z M9,8H8v1h1V8z M11,8h-1v1h1V8z M13,8h-1v1h1V8z M15,8h-1
		v1h1V8z M15,10h1V9h-1V10z M13,10h1V9h-1V10z M11,10h1V9h-1V10z M9,10h1V9H9V10z M7,10h1V9H7V10z M5,10h1V9H5V10z M3,10h1V9H3V10z
		 M1,10h1V9H1V10z M1,10H0v1h1V10z M3,10H2v1h1V10z M5,10H4v1h1V10z M7,10H6v1h1V10z M9,10H8v1h1V10z M11,10h-1v1h1V10z M13,10h-1v1
		h1V10z M15,10h-1v1h1V10z M15,12h1v-1h-1V12z M13,12h1v-1h-1V12z M11,12h1v-1h-1V12z M9,12h1v-1H9V12z M7,12h1v-1H7V12z M5,12h1v-1
		H5V12z M3,12h1v-1H3V12z M1,12h1v-1H1V12z M1,12H0v1h1V12z M3,12H2v1h1V12z M5,12H4v1h1V12z M7,12H6v1h1V12z M9,12H8v1h1V12z
		 M11,12h-1v1h1V12z M13,12h-1v1h1V12z M15,12h-1v1h1V12z M15,14h1v-1h-1V14z M13,14h1v-1h-1V14z M11,14h1v-1h-1V14z M9,14h1v-1H9
		V14z M7,14h1v-1H7V14z M5,14h1v-1H5V14z M3,14h1v-1H3V14z M1,14h1v-1H1V14z M1,14H0v1h1V14z M3,14H2v1h1V14z M5,14H4v1h1V14z M7,14
		H6v1h1V14z M9,14H8v1h1V14z M11,14h-1v1h1V14z M13,14h-1v1h1V14z M15,14h-1v1h1V14z M15,16h1v-1h-1V16z M13,16h1v-1h-1V16z M11,16
		h1v-1h-1V16z M9,16h1v-1H9V16z M7,16h1v-1H7V16z M5,16h1v-1H5V16z M3,16h1v-1H3V16z M1,16h1v-1H1V16z"/>
</g>
<g id="settings_1_" display="none">
	<rect id="right_2_" x="9" y="13" display="inline" fill="#FFFFFF" width="7" height="2"/>
	<rect id="square_2_" x="4" y="12" display="inline" fill="#FFFFFF" width="4" height="4"/>
	<rect id="left_2_" y="13" display="inline" fill="#FFFFFF" width="3" height="2"/>
	<rect id="right" x="14" y="7" display="inline" fill="#FFFFFF" width="2" height="2"/>
	<rect id="square" x="9" y="6" display="inline" fill="#FFFFFF" width="4" height="4"/>
	<rect id="left" y="7" display="inline" fill="#FFFFFF" width="8" height="2"/>
	<rect id="right_1_" x="9" y="1" display="inline" fill="#FFFFFF" width="7" height="2"/>
	<rect id="square_1_" x="4" display="inline" fill="#FFFFFF" width="4" height="4"/>
	<rect id="left_1_" y="1" display="inline" fill="#FFFFFF" width="3" height="2"/>
</g>
<g id="tools">
	<g>
		<path fill="#FFFFFF" d="M2.5,5.5C2.4,5.6,2.3,5.7,2.3,5.9c0,0.1,0,0.3,0,0.4s0,0.2,0,0.2L2,6.7C1.8,6.8,1.7,6.9,1.6,7
			C1.5,7.1,1.3,7.1,1.2,6.9L0.1,5.7C0,5.5,0,5.4,0.1,5.3c0,0,0.1-0.1,0.3-0.2c0.2-0.1,0.3-0.2,0.3-0.3c0.1-0.1,0.2-0.1,0.4-0.1
			s0.4-0.1,0.6-0.2C1.9,4.3,2,4.1,2,3.9c0-0.3,0.1-0.4,0.2-0.5c0,0,0.1,0,0.1-0.1c0.1-0.1,0.2-0.2,0.4-0.4C3,2.8,3.2,2.6,3.4,2.4
			c1.4-1,2.4-1.5,3-1.5c1.3,0,2.1,0,2.4,0c0.1,0,0.1,0-0.1,0.1C7.3,1.6,6.5,2,6.2,2.3c-0.9,0.6-1,1.2-0.6,1.8C6,4.6,6.2,4.9,6.2,4.9
			C6.3,5,6.3,5,6.2,5.1L5,6.2C4.8,6.3,4.7,6.3,4.7,6.3c-0.4-0.5-0.8-0.8-1.1-1C3.2,5.2,2.9,5.3,2.5,5.5z M2.2,13.6l4.1-4L7.5,11
			l-3.9,3.9c-0.2,0.2-0.4,0.2-0.6,0.1l-0.7-0.7C2,14.1,2,13.8,2.2,13.6z M7.1,5.9l6.6,7.6c0.2,0.2,0.2,0.4,0,0.6l-0.8,0.7
			c-0.2,0.1-0.4,0.1-0.6-0.1L5.6,7.2C5.5,7.1,5.5,7,5.6,6.9l1.2-1C6.9,5.8,7,5.8,7.1,5.9z M15.9,2.7c0.2,1.1,0.1,2-0.3,2.7
			c-0.5,0.9-1.4,1.3-2.5,1c-0.6-0.1-1.1,0-1.6,0.5l-1.3,1.2L9.2,6.9l1.1-1.1c0.3-0.3,0.4-0.5,0.5-0.8s0.1-0.7,0.1-1
			c0-0.4,0-0.7,0.1-0.9c0.1-0.6,0.9-1.2,2.2-1.8c0.1-0.1,0.2,0,0.3,0c0.1,0.1,0.1,0.2,0,0.2c-0.1,0.1-0.4,0.6-0.7,1.3
			c-0.1,0.1-0.2,0.3-0.2,0.6c0,0.3,0.2,0.5,0.6,0.8c0.6,0.4,1.1,0.3,1.5-0.4c0.1-0.1,0.2-0.3,0.4-0.7c0.2-0.3,0.3-0.5,0.4-0.5
			c0-0.1,0.1-0.2,0.2-0.1C15.8,2.4,15.9,2.5,15.9,2.7z"/>
	</g>
</g>
</svg>
