<?xml version="1.0" encoding="utf-8"?>
<!-- Generator: Adobe Illustrator 21.0.0, SVG Export Plug-In . SVG Version: 6.00 Build 0)  -->
<svg version="1.1" id="Layer_1" xmlns="http://www.w3.org/2000/svg" xmlns:xlink="http://www.w3.org/1999/xlink" x="0px" y="0px"
	 viewBox="0 0 24 24" enable-background="new 0 0 24 24" xml:space="preserve">
<path id="slides_1_" opacity="0.45" fill="#FFFFFF" d="M5,22H0v-1h5V22z M16,15H0v1h16V15z M10,9H0v1h10V9z M3,3H0v1h3V3z M15,10h9
	V9h-9V10z M8,3v1h16V3H8z M21,16h3v-1h-3V16z M10,22h14v-1H10V22z"/>
<g id="knobs__x28_transparent_x29_">
	<rect x="5" y="19" opacity="8.000000e-02" fill="#FFFFFF" width="5" height="5"/>
	<rect x="16" y="13" opacity="8.000000e-02" fill="#FFFFFF" width="5" height="5"/>
	<rect x="10" y="7" opacity="8.000000e-02" fill="#FFFFFF" width="5" height="5"/>
	<rect x="3" y="1" opacity="8.000000e-02" fill="#FFFFFF" width="5" height="5"/>
</g>
<g id="knobs__x28_small_x29_">
	<path fill="#E1963E" d="M6,5H5C4.4,5,4,4.6,4,4V3c0-0.6,0.4-1,1-1h1c0.6,0,1,0.4,1,1v1C7,4.6,6.6,5,6,5z"/>
	<path fill="#85BAAF" d="M13,11h-1c-0.6,0-1-0.4-1-1V9c0-0.6,0.4-1,1-1h1c0.6,0,1,0.4,1,1v1C14,10.6,13.6,11,13,11z"/>
	<path fill="#AA482E" d="M19,17h-1c-0.6,0-1-0.4-1-1v-1c0-0.6,0.4-1,1-1h1c0.6,0,1,0.4,1,1v1C20,16.6,19.6,17,19,17z"/>
	<path fill="#D0DB42" d="M8,23H7c-0.6,0-1-0.4-1-1v-1c0-0.6,0.4-1,1-1h1c0.6,0,1,0.4,1,1v1C9,22.6,8.6,23,8,23z"/>
</g>
<rect x="6" y="20" fill="#D0DB42" width="3" height="3"/>
<rect x="4" y="2" fill="#E1963E" width="3" height="3"/>
<rect x="11" y="8" fill="#85BAAF" width="3" height="3"/>
<rect x="17" y="14" fill="#AA482E" width="3" height="3"/>
</svg>
