<?xml version="1.0" encoding="utf-8"?>
<!-- Generator: Adobe Illustrator 18.1.1, SVG Export Plug-In . SVG Version: 6.00 Build 0)  -->
<svg version="1.1" id="Layer_1" xmlns="http://www.w3.org/2000/svg" xmlns:xlink="http://www.w3.org/1999/xlink" x="0px" y="0px"
	 viewBox="0 0 20 20" enable-background="new 0 0 20 20" xml:space="preserve">
<g>
	<path fill="#AA482E" d="M0,10c0-2.8,1-5.1,2.9-7.1C4.9,1,7.3,0,10,0s5.1,1,7.1,2.9C19,4.9,20,7.3,20,10s-1,5.1-2.9,7.1
		C15.1,19,12.8,20,10,20s-5.1-1-7.1-2.9C1,15.1,0,12.8,0,10z M2.5,9.4c-0.1,1.8,0.3,3.5,1.4,4.9L14.4,3.9c-1.5-1.1-3.1-1.5-4.9-1.4
		C7.6,2.7,6,3.4,4.7,4.7C3.4,6,2.7,7.6,2.5,9.4z M5.7,16.1c1.5,1.1,3.1,1.5,4.9,1.4c1.8-0.1,3.4-0.9,4.7-2.2
		c1.3-1.3,2.1-2.9,2.2-4.7c0.1-1.8-0.3-3.5-1.4-4.9L5.7,16.1z"/>
</g>
</svg>
