<?xml version="1.0" encoding="utf-8"?>
<!-- Generator: Adobe Illustrator 18.1.1, SVG Export Plug-In . SVG Version: 6.00 Build 0)  -->
<svg version="1.1" xmlns="http://www.w3.org/2000/svg" xmlns:xlink="http://www.w3.org/1999/xlink" x="0px" y="0px"
	 viewBox="0 0 20 20" enable-background="new 0 0 20 20" xml:space="preserve">
<g id="Layer_2" display="none">
	<rect display="inline" fill="#1A1A1A" width="20" height="20"/>
</g>
<g id="Layer_3">
	<g>
		<path fill="#FFFFFF" d="M8.7,18c-1.1,0-1.4-0.9-0.9-2.8l1-4.1c0.1-0.6,0.2-0.9,0-0.9s-0.4,0.1-0.9,0.3c-0.4,0.2-0.8,0.4-1.2,0.6
			l-0.4-0.7c1-0.8,2-1.5,3-2c1.1-0.5,1.9-0.8,2.4-0.8c0.8,0,1,0.9,0.6,2.6l-1.1,4.3c-0.2,0.7-0.1,1,0.1,1c0.5,0,1.1-0.3,1.9-1
			l0.5,0.6c-0.9,0.9-1.8,1.6-2.8,2.1C9.9,17.8,9.2,18,8.7,18z M12,2c0.5,0,0.9,0.1,1.2,0.4s0.4,0.7,0.4,1.1c0,0.5-0.2,1-0.6,1.4
			c-0.4,0.4-0.9,0.6-1.5,0.6c-0.5,0-0.9-0.1-1.2-0.4C9.9,4.9,9.8,4.5,9.8,4S10,3,10.4,2.6C10.8,2.2,11.3,2,12,2z"/>
	</g>
</g>
</svg>
