<?xml version="1.0" encoding="utf-8"?>
<!-- Generator: Adobe Illustrator 18.1.1, SVG Export Plug-In . SVG Version: 6.00 Build 0)  -->
<svg version="1.1" xmlns="http://www.w3.org/2000/svg" xmlns:xlink="http://www.w3.org/1999/xlink" x="0px" y="0px"
	 viewBox="0 0 24 24" enable-background="new 0 0 24 24" xml:space="preserve">
<g id="base" display="none">
	<rect display="inline" fill="#1A1A1A" width="24" height="24"/>
</g>
<g id="grid_1_" display="none">
	<path id="light" display="inline" opacity="6.000000e-02" fill="#FFFFFF" d="M6,5H5V4h1V5z M8,4H7v1h1V4z M10,4H9v1h1V4z M12,4h-1
		v1h1V4z M14,4h-1v1h1V4z M16,4h-1v1h1V4z M18,4h-1v1h1V4z M20,4h-1v1h1V4z M18,6h1V5h-1V6z M16,6h1V5h-1V6z M14,6h1V5h-1V6z M12,6
		h1V5h-1V6z M10,6h1V5h-1V6z M8,6h1V5H8V6z M6,6h1V5H6V6z M4,6h1V5H4V6z M6,6H5v1h1V6z M8,6H7v1h1V6z M10,6H9v1h1V6z M12,6h-1v1h1V6
		z M14,6h-1v1h1V6z M16,6h-1v1h1V6z M18,6h-1v1h1V6z M20,6h-1v1h1V6z M18,8h1V7h-1V8z M16,8h1V7h-1V8z M14,8h1V7h-1V8z M12,8h1V7h-1
		V8z M10,8h1V7h-1V8z M8,8h1V7H8V8z M6,8h1V7H6V8z M4,8h1V7H4V8z M6,8H5v1h1V8z M8,8H7v1h1V8z M10,8H9v1h1V8z M12,8h-1v1h1V8z M14,8
		h-1v1h1V8z M16,8h-1v1h1V8z M18,8h-1v1h1V8z M20,8h-1v1h1V8z M18,10h1V9h-1V10z M16,10h1V9h-1V10z M14,10h1V9h-1V10z M12,10h1V9h-1
		V10z M10,10h1V9h-1V10z M8,10h1V9H8V10z M6,10h1V9H6V10z M4,10h1V9H4V10z M6,10H5v1h1V10z M8,10H7v1h1V10z M10,10H9v1h1V10z M12,10
		h-1v1h1V10z M14,10h-1v1h1V10z M16,10h-1v1h1V10z M18,10h-1v1h1V10z M20,10h-1v1h1V10z M18,12h1v-1h-1V12z M16,12h1v-1h-1V12z
		 M14,12h1v-1h-1V12z M12,12h1v-1h-1V12z M10,12h1v-1h-1V12z M8,12h1v-1H8V12z M6,12h1v-1H6V12z M4,12h1v-1H4V12z M6,12H5v1h1V12z
		 M8,12H7v1h1V12z M10,12H9v1h1V12z M12,12h-1v1h1V12z M14,12h-1v1h1V12z M16,12h-1v1h1V12z M18,12h-1v1h1V12z M20,12h-1v1h1V12z
		 M18,14h1v-1h-1V14z M16,14h1v-1h-1V14z M14,14h1v-1h-1V14z M12,14h1v-1h-1V14z M10,14h1v-1h-1V14z M8,14h1v-1H8V14z M6,14h1v-1H6
		V14z M4,14h1v-1H4V14z M6,14H5v1h1V14z M8,14H7v1h1V14z M10,14H9v1h1V14z M12,14h-1v1h1V14z M14,14h-1v1h1V14z M16,14h-1v1h1V14z
		 M18,14h-1v1h1V14z M20,14h-1v1h1V14z M18,16h1v-1h-1V16z M16,16h1v-1h-1V16z M14,16h1v-1h-1V16z M12,16h1v-1h-1V16z M10,16h1v-1
		h-1V16z M8,16h1v-1H8V16z M6,16h1v-1H6V16z M4,16h1v-1H4V16z M6,16H5v1h1V16z M8,16H7v1h1V16z M10,16H9v1h1V16z M12,16h-1v1h1V16z
		 M14,16h-1v1h1V16z M16,16h-1v1h1V16z M18,16h-1v1h1V16z M20,16h-1v1h1V16z M18,18h1v-1h-1V18z M16,18h1v-1h-1V18z M14,18h1v-1h-1
		V18z M12,18h1v-1h-1V18z M10,18h1v-1h-1V18z M8,18h1v-1H8V18z M6,18h1v-1H6V18z M4,18h1v-1H4V18z M6,18H5v1h1V18z M8,18H7v1h1V18z
		 M10,18H9v1h1V18z M12,18h-1v1h1V18z M14,18h-1v1h1V18z M16,18h-1v1h1V18z M18,18h-1v1h1V18z M20,18h-1v1h1V18z M18,20h1v-1h-1V20z
		 M16,20h1v-1h-1V20z M14,20h1v-1h-1V20z M12,20h1v-1h-1V20z M10,20h1v-1h-1V20z M8,20h1v-1H8V20z M6,20h1v-1H6V20z M4,20h1v-1H4V20
		z"/>
	<path id="dark" display="inline" opacity="3.000000e-02" fill="#FFFFFF" d="M5,5H4V4h1V5z M7,4H6v1h1V4z M9,4H8v1h1V4z M11,4h-1v1
		h1V4z M13,4h-1v1h1V4z M15,4h-1v1h1V4z M17,4h-1v1h1V4z M19,4h-1v1h1V4z M19,6h1V5h-1V6z M17,6h1V5h-1V6z M15,6h1V5h-1V6z M13,6h1
		V5h-1V6z M11,6h1V5h-1V6z M9,6h1V5H9V6z M7,6h1V5H7V6z M5,6h1V5H5V6z M5,6H4v1h1V6z M7,6H6v1h1V6z M9,6H8v1h1V6z M11,6h-1v1h1V6z
		 M13,6h-1v1h1V6z M15,6h-1v1h1V6z M17,6h-1v1h1V6z M19,6h-1v1h1V6z M19,8h1V7h-1V8z M17,8h1V7h-1V8z M15,8h1V7h-1V8z M13,8h1V7h-1
		V8z M11,8h1V7h-1V8z M9,8h1V7H9V8z M7,8h1V7H7V8z M5,8h1V7H5V8z M5,8H4v1h1V8z M7,8H6v1h1V8z M9,8H8v1h1V8z M11,8h-1v1h1V8z M13,8
		h-1v1h1V8z M15,8h-1v1h1V8z M17,8h-1v1h1V8z M19,8h-1v1h1V8z M19,10h1V9h-1V10z M17,10h1V9h-1V10z M15,10h1V9h-1V10z M13,10h1V9h-1
		V10z M11,10h1V9h-1V10z M9,10h1V9H9V10z M7,10h1V9H7V10z M5,10h1V9H5V10z M5,10H4v1h1V10z M7,10H6v1h1V10z M9,10H8v1h1V10z M11,10
		h-1v1h1V10z M13,10h-1v1h1V10z M15,10h-1v1h1V10z M17,10h-1v1h1V10z M19,10h-1v1h1V10z M19,12h1v-1h-1V12z M17,12h1v-1h-1V12z
		 M15,12h1v-1h-1V12z M13,12h1v-1h-1V12z M11,12h1v-1h-1V12z M9,12h1v-1H9V12z M7,12h1v-1H7V12z M5,12h1v-1H5V12z M5,12H4v1h1V12z
		 M7,12H6v1h1V12z M9,12H8v1h1V12z M11,12h-1v1h1V12z M13,12h-1v1h1V12z M15,12h-1v1h1V12z M17,12h-1v1h1V12z M19,12h-1v1h1V12z
		 M19,14h1v-1h-1V14z M17,14h1v-1h-1V14z M15,14h1v-1h-1V14z M13,14h1v-1h-1V14z M11,14h1v-1h-1V14z M9,14h1v-1H9V14z M7,14h1v-1H7
		V14z M5,14h1v-1H5V14z M5,14H4v1h1V14z M7,14H6v1h1V14z M9,14H8v1h1V14z M11,14h-1v1h1V14z M13,14h-1v1h1V14z M15,14h-1v1h1V14z
		 M17,14h-1v1h1V14z M19,14h-1v1h1V14z M19,16h1v-1h-1V16z M17,16h1v-1h-1V16z M15,16h1v-1h-1V16z M13,16h1v-1h-1V16z M11,16h1v-1
		h-1V16z M9,16h1v-1H9V16z M7,16h1v-1H7V16z M5,16h1v-1H5V16z M5,16H4v1h1V16z M7,16H6v1h1V16z M9,16H8v1h1V16z M11,16h-1v1h1V16z
		 M13,16h-1v1h1V16z M15,16h-1v1h1V16z M17,16h-1v1h1V16z M19,16h-1v1h1V16z M19,18h1v-1h-1V18z M17,18h1v-1h-1V18z M15,18h1v-1h-1
		V18z M13,18h1v-1h-1V18z M11,18h1v-1h-1V18z M9,18h1v-1H9V18z M7,18h1v-1H7V18z M5,18h1v-1H5V18z M5,18H4v1h1V18z M7,18H6v1h1V18z
		 M9,18H8v1h1V18z M11,18h-1v1h1V18z M13,18h-1v1h1V18z M15,18h-1v1h1V18z M17,18h-1v1h1V18z M19,18h-1v1h1V18z M19,20h1v-1h-1V20z
		 M17,20h1v-1h-1V20z M15,20h1v-1h-1V20z M13,20h1v-1h-1V20z M11,20h1v-1h-1V20z M9,20h1v-1H9V20z M7,20h1v-1H7V20z M5,20h1v-1H5V20
		z"/>
</g>
<g id="settings_1_">
	<g display="none">
		<rect id="right_2_" x="13" y="17" display="inline" fill="#FFFFFF" width="7" height="2"/>
		<rect id="square_2_" x="8" y="16" display="inline" fill="#FFFFFF" width="4" height="4"/>
		<rect id="left_2_" x="4" y="17" display="inline" fill="#FFFFFF" width="3" height="2"/>
		<rect id="right" x="18" y="11" display="inline" fill="#FFFFFF" width="2" height="2"/>
		<rect id="square" x="13" y="10" display="inline" fill="#FFFFFF" width="4" height="4"/>
		<rect id="left" x="4" y="11" display="inline" fill="#FFFFFF" width="8" height="2"/>
		<rect id="right_1_" x="13" y="5" display="inline" fill="#FFFFFF" width="7" height="2"/>
		<rect id="square_1_" x="8" y="4" display="inline" fill="#FFFFFF" width="4" height="4"/>
		<rect id="left_1_" x="4" y="5" display="inline" fill="#FFFFFF" width="3" height="2"/>
	</g>
	<g display="none">
		<path display="inline" fill="#FFFFFF" d="M3.5,3v2H0V3H3.5z M13.5,11v2H0v-2H13.5z M5.5,19v2H0v-2H5.5z M9,1
			c0.3,0,0.5,0.1,0.7,0.3C9.9,1.5,10,1.7,10,2v4c0,0.3-0.1,0.5-0.3,0.7C9.5,6.9,9.3,7,9,7H5C4.7,7,4.5,6.9,4.3,6.7
			C4.1,6.5,4,6.3,4,6V2c0-0.3,0.1-0.5,0.3-0.7C4.5,1.1,4.7,1,5,1H9z M11,17c0.3,0,0.5,0.1,0.7,0.3S12,17.7,12,18v4
			c0,0.3-0.1,0.5-0.3,0.7C11.5,22.9,11.3,23,11,23H7c-0.3,0-0.5-0.1-0.7-0.3C6.1,22.5,6,22.3,6,22v-4c0-0.3,0.1-0.5,0.3-0.7
			C6.5,17.1,6.7,17,7,17H11z M24,3v2H10.5V3H24z M24,19v2H12.5v-2H24z M19,9c0.3,0,0.5,0.1,0.7,0.3C19.9,9.5,20,9.7,20,10v4
			c0,0.3-0.1,0.5-0.3,0.7C19.5,14.9,19.3,15,19,15h-4c-0.3,0-0.5-0.1-0.7-0.3C14.1,14.5,14,14.3,14,14v-4c0-0.3,0.1-0.5,0.3-0.7
			C14.5,9.1,14.7,9,15,9H19z M24,11v2h-3.5v-2H24z"/>
	</g>
	<g>
		<path fill="#FFFFFF" d="M0,14.5v-2.3L2.3,12c0.1-0.5,0.3-0.9,0.6-1.3L1.4,8.9L3,7.2l1.8,1.5c0.4-0.3,0.9-0.4,1.3-0.6l0.2-2.3h2.3
			l0.2,2.3c0.5,0.1,0.9,0.3,1.3,0.6L12,7.2l1.6,1.7l-1.4,1.8c0.3,0.4,0.4,0.8,0.6,1.3l2.3,0.2v2.3l-2.3,0.2
			c-0.1,0.5-0.3,0.9-0.6,1.3l1.4,1.7L12,19.5L10.2,18c-0.4,0.2-0.9,0.4-1.3,0.6l-0.2,2.3H6.3l-0.2-2.3c-0.5-0.1-0.9-0.3-1.3-0.6
			L3,19.5l-1.6-1.7l1.4-1.7c-0.2-0.4-0.4-0.9-0.6-1.3L0,14.5z M5.3,13.3c0,0.6,0.2,1.1,0.6,1.5c0.4,0.4,0.9,0.6,1.5,0.6
			c0.6,0,1.1-0.2,1.5-0.6c0.4-0.4,0.6-0.9,0.6-1.5S9.4,12.2,9,11.8c-0.4-0.4-0.9-0.6-1.5-0.6c-0.6,0-1.1,0.2-1.5,0.6
			C5.5,12.3,5.3,12.8,5.3,13.3z M12.9,7.6l0.2-1.7l1.7,0c0.1-0.4,0.3-0.7,0.5-0.9l-0.9-1.4l1.3-1.1l1.2,1.2c0.3-0.2,0.6-0.3,1-0.3
			l0.3-1.6L19.9,2l0,1.6c0.4,0.1,0.7,0.3,0.9,0.5l1.4-0.9l1.1,1.3l-1.2,1.2c0.2,0.3,0.3,0.7,0.3,1L24,7.1l-0.2,1.7h-1.6
			c-0.1,0.3-0.3,0.6-0.5,0.9l0.9,1.4l-1.3,1.1L20.1,11c-0.4,0.1-0.7,0.2-1,0.3l-0.3,1.6l-1.7-0.1V11c-0.3-0.1-0.6-0.3-0.9-0.5
			l-1.4,0.9l-1.1-1.3L14.9,9c-0.1-0.3-0.2-0.6-0.3-1L12.9,7.6z M13.7,18.3l0.1-1.2H15c0.1-0.3,0.2-0.5,0.3-0.7l-0.6-1l0.9-0.8
			l0.9,0.9c0.2-0.1,0.4-0.2,0.7-0.2l0.2-1.2l1.2,0.1v1.2c0.3,0.1,0.5,0.2,0.7,0.4l1-0.6l0.7,1L20.1,17c0.1,0.2,0.2,0.4,0.2,0.7
			l1.1,0.3l-0.1,1.2h-1.2c-0.1,0.2-0.2,0.5-0.3,0.6l0.7,1l-1,0.8l-0.8-0.9C18.5,20.9,18.3,21,18,21l-0.2,1.2L16.6,22v-1.2
			c-0.2-0.1-0.4-0.2-0.6-0.3l-1,0.7l-0.7-1l0.8-0.9c-0.1-0.2-0.2-0.4-0.2-0.7L13.7,18.3z M16.5,18c-0.1,0.3,0,0.6,0.2,0.9
			c0.2,0.2,0.4,0.4,0.8,0.4c0.3,0,0.6,0,0.8-0.2c0.2-0.2,0.4-0.4,0.4-0.8c0-0.4,0-0.6-0.2-0.8c-0.2-0.2-0.5-0.3-0.7-0.4h-0.1
			c-0.3,0-0.5,0.1-0.7,0.3C16.6,17.4,16.5,17.7,16.5,18z M16.9,7.2c-0.1,0.4,0,0.8,0.3,1.2c0.3,0.3,0.6,0.5,1.1,0.6
			c0.4,0.1,0.8-0.1,1.2-0.4S20,7.9,20,7.5c0-0.4-0.1-0.8-0.3-1.2c-0.3-0.4-0.6-0.5-1.1-0.6h-0.2c-0.4,0-0.8,0.1-1.1,0.4
			C17.1,6.4,17,6.8,16.9,7.2z"/>
	</g>
</g>
<g id="tools" display="none">
	<g display="inline">
		<path fill="#FFFFFF" d="M6.5,9.5C6.4,9.6,6.3,9.7,6.3,9.9c0,0.1,0,0.3,0,0.4s0,0.2,0,0.2L6,10.7c-0.2,0.1-0.3,0.2-0.3,0.3
			c-0.2,0.1-0.3,0.1-0.4-0.1L4.1,9.7C4,9.5,4,9.4,4.1,9.3c0,0,0.1-0.1,0.3-0.2c0.2-0.1,0.3-0.2,0.3-0.3c0.1-0.1,0.2-0.1,0.4-0.1
			c0.2,0,0.4-0.1,0.6-0.2C5.9,8.3,6,8.1,6,7.9c0-0.3,0.1-0.4,0.2-0.5c0,0,0.1,0,0.1-0.1c0.1-0.1,0.2-0.2,0.4-0.4
			C7,6.8,7.2,6.6,7.4,6.4c1.4-1,2.4-1.5,3-1.5c1.3,0,2.1,0,2.4,0c0.1,0,0.1,0-0.1,0.1c-1.3,0.6-2.1,1-2.4,1.2
			c-0.9,0.6-1,1.2-0.6,1.8c0.4,0.5,0.6,0.7,0.6,0.8c0.1,0.1,0.1,0.2,0,0.2L9,10.2c-0.1,0.1-0.2,0.1-0.3,0.1c-0.4-0.5-0.8-0.8-1.1-1
			C7.2,9.2,6.9,9.3,6.5,9.5z M6.2,17.6l4.1-4l1.2,1.4l-3.9,3.9c-0.2,0.2-0.4,0.2-0.6,0.1l-0.7-0.7C6,18.1,6,17.8,6.2,17.6z
			 M11.1,9.9l6.6,7.6c0.2,0.2,0.2,0.4,0,0.6l-0.8,0.7c-0.2,0.1-0.4,0.1-0.6-0.1l-6.6-7.5c-0.1-0.1-0.1-0.2,0-0.3l1.2-1
			C10.9,9.8,11,9.8,11.1,9.9z M19.9,6.7c0.2,1.1,0.1,2-0.3,2.7c-0.5,0.9-1.4,1.3-2.5,1c-0.6-0.1-1.1,0-1.6,0.5l-1.3,1.2l-1.1-1.2
			l1.1-1.1c0.3-0.3,0.4-0.5,0.5-0.8c0.1-0.3,0.1-0.7,0.1-1c0-0.4,0-0.7,0.1-0.9c0.1-0.6,0.9-1.2,2.2-1.8c0.1-0.1,0.2,0,0.3,0
			c0.1,0.1,0.1,0.2,0,0.2c-0.1,0.1-0.4,0.6-0.7,1.3c-0.1,0.1-0.2,0.3-0.2,0.6c0,0.3,0.2,0.5,0.6,0.8c0.6,0.4,1.1,0.3,1.5-0.4
			c0.1-0.1,0.2-0.3,0.4-0.7s0.3-0.5,0.4-0.5c0-0.1,0.1-0.2,0.2-0.1C19.8,6.4,19.9,6.5,19.9,6.7z"/>
	</g>
</g>
<g id="dashboard" display="none">
	<g display="inline">
		<path fill="#FFFFFF" d="M12,7c-2.7,0-5,1-6.8,3s-2.8,4.5-2.8,7.5c0,0.5,0,0.8,0,1.1c0,0.4-0.1,0.6-0.3,0.9
			c-0.2,0.2-0.5,0.4-0.8,0.4c-0.3,0-0.6-0.1-0.9-0.3c-0.3-0.2-0.4-0.5-0.4-0.8c0-0.1,0-0.3,0-0.6c0-0.3,0-0.5,0-0.7
			c0-3.6,1.2-6.7,3.5-9.2S8.6,4.6,12,4.6c1.2,0,2.2,0.1,3.2,0.4l-1.7,2.1C12.9,7,12.4,7,12,7z M9.7,16.1c0.5-0.9,2.3-3.2,5.1-6.8
			c2.9-3.6,4.4-5.4,4.7-5.3c0.2,0.1-0.6,2.3-2.3,6.7c-1.7,4.4-2.8,7-3.3,7.8c-0.8,1.4-1.9,1.7-3.3,0.9C9.3,18.6,9,17.5,9.7,16.1z
			 M20.7,8.5c2.2,2.5,3.3,5.5,3.3,9c0,0.6,0,1.1,0,1.4c0,0.3-0.2,0.6-0.4,0.8c-0.2,0.2-0.5,0.3-0.8,0.3h-0.1
			c-0.4-0.1-0.6-0.2-0.8-0.5c-0.2-0.3-0.3-0.5-0.3-0.9c0-0.2,0-0.6,0-1.1c0-2.4-0.6-4.5-1.9-6.4c0.1-0.2,0.3-0.6,0.5-1.2L20.7,8.5z"
			/>
	</g>
</g>
</svg>
