<?xml version="1.0" encoding="utf-8"?>
<!-- Generator: Adobe Illustrator 18.1.1, SVG Export Plug-In . SVG Version: 6.00 Build 0)  -->
<svg version="1.1" id="Layer_1" xmlns="http://www.w3.org/2000/svg" xmlns:xlink="http://www.w3.org/1999/xlink" x="0px" y="0px"
	 viewBox="0 0 32 32" enable-background="new 0 0 32 32" xml:space="preserve">
<g opacity="0.5">
	<path fill="#FFFFFF" d="M6.8,25.2c-5.1-5.1-5.1-13.3,0-18.4c5.1-5.1,13.3-5.1,18.4,0l-1.4,1.4c-4.3-4.3-11.3-4.3-15.6,0
		c-4.3,4.3-4.3,11.3,0,15.6L6.8,25.2z"/>
	<g>
		<polygon fill="#FFFFFF" points="21,10 28,11 27,4 		"/>
	</g>
</g>
<path fill="#85BAAF" d="M17.3,28.9c-1.4,0.1-2.9,0-4.3-0.3l0.5-1.9c1.2,0.3,2.4,0.4,3.6,0.2L17.3,28.9z"/>
<path fill="#D0DB42" d="M18.7,28.7l-0.4-2c1.2-0.3,2.3-0.7,3.4-1.3l1,1.7C21.5,27.9,20.1,28.4,18.7,28.7z"/>
<path fill="#AA482E" d="M23.9,26.3l-1.2-1.6c1-0.7,1.8-1.6,2.5-2.7c0.1-0.2,0.2-0.4,0.4-0.6l1.7,1c-0.1,0.2-0.3,0.5-0.4,0.7
	C26,24.4,25,25.5,23.9,26.3z"/>
<path fill="#E1963E" d="M11.6,28.2c-1-0.3-1.9-0.8-2.8-1.4c-0.3-0.2-0.7-0.5-1-0.7l1.3-1.6c0.3,0.2,0.6,0.4,0.8,0.6
	c0.7,0.5,1.5,0.9,2.3,1.2L11.6,28.2z"/>
</svg>
