<?xml version="1.0" encoding="utf-8"?>
<!-- Generator: Adobe Illustrator 18.1.1, SVG Export Plug-In . SVG Version: 6.00 Build 0)  -->
<svg version="1.1" id="Layer_1" xmlns="http://www.w3.org/2000/svg" xmlns:xlink="http://www.w3.org/1999/xlink" x="0px" y="0px"
	 viewBox="0 0 20 20" enable-background="new 0 0 20 20" xml:space="preserve">
<circle fill="#AA482E" cx="14" cy="14" r="6"/>
<circle fill="#003E46" cx="6" cy="14" r="6"/>
<circle fill="#85BAAF" cx="10" cy="6" r="6"/>
<path fill="#D0DB42" d="M8.4,11.8c0.5,0.1,1,0.2,1.6,0.2c2.5,0,4.7-1.6,5.6-3.8C15.1,8.1,14.5,8,14,8C11.5,8,9.3,9.6,8.4,11.8z"/>
<path fill="#4F7A7F" d="M4.4,8.2c0.9,2.2,3,3.8,5.6,3.8c0.5,0,1.1-0.1,1.6-0.2C10.7,9.6,8.5,8,6,8C5.5,8,4.9,8.1,4.4,8.2z"/>
<path fill="#E1963E" d="M8,14c0,1.8,0.8,3.4,2,4.5c1.2-1.1,2-2.7,2-4.5s-0.8-3.4-2-4.5C8.8,10.6,8,12.2,8,14z"/>
<path fill="#FFFFFF" d="M11.5,11.7c-0.1-0.2-0.2-0.5-0.3-0.7c0,0,0,0,0,0c-0.1-0.2-0.3-0.4-0.4-0.6c-0.1-0.1-0.1-0.1-0.2-0.2
	c-0.1-0.1-0.2-0.3-0.4-0.4c-0.1-0.1-0.1-0.1-0.2-0.2c0,0,0,0,0,0c0,0,0,0,0,0C9.9,9.6,9.8,9.7,9.8,9.8C9.7,9.9,9.5,10,9.4,10.1
	c-0.1,0.1-0.1,0.1-0.2,0.2C9.1,10.5,9,10.8,8.8,11c0,0,0,0,0,0c-0.1,0.2-0.2,0.5-0.3,0.7c0,0,0,0,0,0.1c0.1,0,0.2,0,0.3,0.1
	c0.2,0,0.3,0.1,0.5,0.1C9.4,12,9.7,12,10,12s0.6,0,0.8-0.1c0.2,0,0.3-0.1,0.5-0.1C11.4,11.8,11.5,11.8,11.5,11.7
	C11.6,11.8,11.5,11.7,11.5,11.7z"/>
</svg>
