<?xml version="1.0" encoding="utf-8"?>
<!-- Generator: Adobe Illustrator 18.1.1, SVG Export Plug-In . SVG Version: 6.00 Build 0)  -->
<svg version="1.1" id="Layer_1" xmlns="http://www.w3.org/2000/svg" xmlns:xlink="http://www.w3.org/1999/xlink" x="0px" y="0px"
	 viewBox="0 0 20 20" enable-background="new 0 0 20 20" xml:space="preserve">
<rect y="4" opacity="0.2" fill="#FFFFFF" width="16" height="15"/>
<rect x="16" y="7" opacity="0.8" fill="#D0DB42" width="3" height="3"/>
<rect x="16" y="4" opacity="0.8" fill="#156140" width="3" height="3"/>
<rect x="16" y="1" opacity="0.85" fill="#AA482E" width="3" height="3"/>
<rect x="16" y="10" opacity="0.8" fill="#E1963E" width="3" height="3"/>
<rect x="16" y="13" opacity="0.8" fill="#85BAAF" width="3" height="3"/>
<rect x="16" y="16" opacity="0.8" fill="#D7D392" width="3" height="3"/>
<rect y="1" fill="#003E46" width="16" height="3"/>
<path fill="#FFFFFF" d="M12,13H2v-1h10V13z M13,14H2v1h11V14z M14,6H2v1h12V6z M12,8H2v1h10V8z M13,10H2v1h11V10z M14,16H2v1h12V16z
	"/>
</svg>
