<?xml version="1.0" encoding="utf-8"?>
<!-- Generator: Adobe Illustrator 18.1.1, SVG Export Plug-In . SVG Version: 6.00 Build 0)  -->
<svg version="1.1" id="Layer_1" xmlns="http://www.w3.org/2000/svg" xmlns:xlink="http://www.w3.org/1999/xlink" x="0px" y="0px"
	 viewBox="0 0 20 20" enable-background="new 0 0 20 20" xml:space="preserve">
<g id="labels_1_">
	<path id="right_4_" fill="#E1963E" d="M14.7,14.7c2.6-2.6,2.6-6.8,0-9.4l2.4-2.4c3.9,3.9,3.9,10.2,0,14.1L14.7,14.7z"/>
	<path id="left_4_" fill="#D0DB42" d="M5.3,5.3c-2.6,2.6-2.6,6.8,0,9.4l-2.4,2.4C-1,13.2-1,6.8,2.9,2.9"/>
	<path id="bottom_4_" fill="#AA482E" d="M5.3,14.7c2.6,2.6,6.8,2.6,9.4,0l2.4,2.4C13.2,21,6.8,21,2.9,17.1L5.3,14.7z"/>
	<path id="top_4_" fill="#85BAAF" d="M14.7,5.3c-1.2-1.2-2.9-2-4.7-2c-1.8,0-3.5,0.7-4.7,2L2.9,2.9C4.7,1.1,7.2,0,10,0
		c2.8,0,5.3,1.1,7.1,2.9L14.7,5.3z"/>
</g>
<g>
	<circle fill="#FFFFFF" cx="10" cy="10" r="8"/>
	<path fill="#003E46" d="M2,10c0,3.2,1.8,5.9,4.5,7.2L2.7,6.7C2.2,7.7,2,8.8,2,10z M15.4,9.6c0-1-0.4-1.7-0.7-2.2
		C14.3,6.7,14,6.2,14,5.5c0-0.7,0.6-1.4,1.3-1.4c0,0,0.1,0,0.1,0C14,2.8,12.1,2,10,2C7.2,2,4.7,3.4,3.3,5.6c0.2,0,0.4,0,0.5,0
		C4.7,5.6,6,5.5,6,5.5c0.4,0,0.5,0.6,0.1,0.7c0,0-0.4,0.1-0.9,0.1L8,14.9l1.8-5.3L8.5,6.2c-0.4,0-0.8-0.1-0.8-0.1
		c-0.4,0-0.4-0.7,0.1-0.7c0,0,1.3,0.1,2.1,0.1c0.8,0,2.1-0.1,2.1-0.1c0.4,0,0.5,0.6,0,0.7c0,0-0.4,0.1-0.9,0.1l2.9,8.6l0.8-2.7
		C15.2,11.1,15.4,10.3,15.4,9.6z M10.1,10.7l-2.4,7C8.5,17.9,9.2,18,10,18c0.9,0,1.8-0.2,2.7-0.5c0,0,0-0.1-0.1-0.1L10.1,10.7z
		 M17,6.2c0,0.3,0.1,0.5,0.1,0.8c0,0.8-0.2,1.7-0.6,2.9L14,16.9c2.4-1.4,4-4,4-6.9C18,8.6,17.6,7.3,17,6.2z"/>
</g>
</svg>
