<?xml version="1.0" encoding="utf-8"?>
<!-- Generator: Adobe Illustrator 18.1.1, SVG Export Plug-In . SVG Version: 6.00 Build 0)  -->
<svg version="1.1" id="posts" xmlns="http://www.w3.org/2000/svg" xmlns:xlink="http://www.w3.org/1999/xlink" x="0px" y="0px"
	 viewBox="0 0 20 20" enable-background="new 0 0 20 20" xml:space="preserve">
<rect id="base_1_" x="1" y="4" fill="#003E46" width="18" height="10"/>
<path id="frame" fill="#FFFFFF" d="M0,3h20v12H0V3z M19,4H1v10h18V4z"/>
<rect id="post" x="9" y="15" fill="#FFFFFF" width="2.1" height="5"/>
<path id="light_5_" fill="#FFFFFF" d="M10.5,3h-1V2h1V3z M11.5,1h-3L8,2h4L11.5,1z"/>
<path id="light_6_" fill="#FFFFFF" d="M5,2H1l0.5-1h3L5,2z M3.5,2h-1v1h1V2z"/>
<path id="light_7_" fill="#FFFFFF" d="M19,2h-4l0.5-1h3L19,2z M17.5,2h-1v1h1V2z"/>
<rect id="platform" y="16" opacity="0.8" fill="#FFFFFF" width="20" height="1"/>
<rect id="rod_1_" x="16.5" y="15" fill="#FFFFFF" width="1" height="1"/>
<rect id="rod" x="2.5" y="15" fill="#FFFFFF" width="1" height="1"/>
<rect x="11" y="6" fill="#AA482E" width="6" height="1"/>
<rect x="11" y="8" fill="#D0DB42" width="6" height="1"/>
<rect x="11" y="10" fill="#E1963E" width="6" height="1"/>
<rect x="3" y="6" fill="#85BAAF" width="6" height="6"/>
</svg>
