<?xml version="1.0" encoding="utf-8"?>
<!-- Generator: Adobe Illustrator 18.1.1, SVG Export Plug-In . SVG Version: 6.00 Build 0)  -->
<svg version="1.1" id="Layer_1" xmlns="http://www.w3.org/2000/svg" xmlns:xlink="http://www.w3.org/1999/xlink" x="0px" y="0px"
	 viewBox="0 0 32 32" enable-background="new 0 0 32 32" xml:space="preserve">
<g>
	<rect x="14" y="23" fill="#FFFFFF" width="2" height="1"/>
	<polygon fill="#FFFFFF" points="8,8 8,10 9,10 9,9 10,9 10,8 	"/>
	<rect x="12" y="8" fill="#FFFFFF" width="2" height="1"/>
	<rect x="8" y="12" fill="#FFFFFF" width="1" height="2"/>
	<rect x="16" y="8" fill="#FFFFFF" width="2" height="1"/>
	<rect x="20" y="8" fill="#FFFFFF" width="2" height="1"/>
	<rect x="8" y="16" fill="#FFFFFF" width="1" height="2"/>
	<rect x="18" y="23" fill="#FFFFFF" width="2" height="1"/>
	<rect x="23" y="12" fill="#FFFFFF" width="1" height="2"/>
	<polygon fill="#FFFFFF" points="23,8 23,9 23,10 24,10 24,8 	"/>
	<rect x="23" y="16" fill="#FFFFFF" width="1" height="2"/>
	<rect x="23" y="20" fill="#FFFFFF" width="1" height="2"/>
	<polygon fill="#FFFFFF" points="22,23 22,24 24,24 24,23 23,23 	"/>
	<polygon fill="#FFFFFF" points="11,21 13,21 13,22 11,22 11,24 10,24 10,22 8,22 8,21 10,21 10,19 11,19 	"/>
</g>
</svg>
